<?xml version="1.0" standalone="no"?>
<!DOCTYPE svg PUBLIC "-//W3C//DTD SVG 1.1//EN" "http://www.w3.org/Graphics/SVG/1.1/DTD/svg11.dtd" >
<svg xmlns="http://www.w3.org/2000/svg">
<metadata>Generated by IcoMoon</metadata>
<defs>
<font id="icomoon" horiz-adv-x="1024">
<font-face units-per-em="1024" ascent="960" descent="-64" />
<missing-glyph horiz-adv-x="1024" />
<glyph unicode="&#x20;" horiz-adv-x="512" d="" />
<glyph unicode="&#xe900;" glyph-name="account" d="M793.6 643.009c0 163.287-131.807 295.658-294.4 295.658s-294.4-132.371-294.4-295.658c0-163.287 131.807-295.658 294.4-295.658s294.4 132.371 294.4 295.658zM256 643.009c0 134.89 108.884 244.239 243.2 244.239s243.2-109.35 243.2-244.239c0-134.89-108.884-244.239-243.2-244.239s-243.2 109.35-243.2 244.239zM0-38.291v-25.709h1024v25.709c0 230.828-236.909 437.060-512 437.060-16.552 0-33.011-0.67-49.339-2.002-14.092-1.149 22.595-13.554 23.739-27.706 14.95 1.219 10.431-21.711 25.6-21.711 248.311 0 460.8-184.974 460.8-385.641l25.6 25.709h-972.8l25.6-25.709c0 136.533 85.814 261.345 224.064 330.852 12.643 6.356 17.761 21.802 11.432 34.498s-21.709 17.837-34.352 11.48c-154.762-77.808-252.344-219.736-252.344-376.83z" />
<glyph unicode="&#xe901;" glyph-name="bluetooth" d="M481.792 960l307.2-307.2-204.8-204.8 204.8-204.8-307.2-307.2h-20.992v388.608l-168.96-168.96-71.68 72.704 219.136 219.648-220.16 220.16 72.704 71.68 168.96-167.936v388.096h20.992zM563.2 734.208v-163.328l81.408 81.92-81.408 81.408zM644.608 243.2l-81.408 81.408v-162.816l81.408 81.408z" />
<glyph unicode="&#xe902;" glyph-name="connect" d="M506.616 943.506c-276.108 0-500.672-224.564-500.672-500.672s224.564-500.672 500.672-500.672 500.672 224.564 500.672 500.672-224.564 500.672-500.672 500.672v0zM418.264 218.271c-18.411-14.727-88.356-51.545-158.302 29.448-69.944 84.673 0 143.576 0 143.576s84.673 69.946 121.486 99.4c40.496 29.448 55.223 40.492 92.036 40.492 40.496 0 47.86-7.359 66.266-18.407l36.813-36.813c0 0 11.048-14.727 11.048-22.090s-14.727-14.722-29.454-22.084c-18.407-7.364-25.77 3.678-25.77 3.678s-7.363 11.044-29.448 29.455c-22.089 18.406-58.903-3.685-58.903-3.685s-114.126-84.673-132.533-103.080-22.090-33.133-14.727-55.218c7.364-22.090 18.407-40.497 47.86-44.182 29.448-3.678 47.86 14.727 47.86 14.727l73.624 58.904c0 0 11.049-14.727 33.133-18.407 22.090-3.685 36.813 0 36.813 0s-99.396-84.671-117.802-95.714v0zM756.95 475.967l-132.528-106.762c0 0-47.86-47.856-106.763-22.085-58.903 25.769-66.266 55.218-66.266 55.218s-7.358 14.728 7.364 25.77c14.727 11.048 33.133 14.727 47.86 0 14.727-14.722 51.54-40.497 84.673-11.043 36.811 29.448 117.805 92.036 132.532 106.762 18.407 14.722 22.085 40.491 0 69.946-22.089 29.448-55.223 36.811-92.036 7.363-36.816-29.454-66.266-55.223-66.266-55.223s-11.043 11.043-44.176 14.727c-33.133 3.678-55.225-11.044-33.133 3.678 22.085 14.728 103.080 80.993 103.080 80.993s95.715 73.63 169.344-14.727c73.63-88.351-3.683-154.617-3.683-154.617v0z" />
<glyph unicode="&#xe903;" glyph-name="de" d="M723.627 106.667h-109.227v109.227h112.64v71.68h-655.36v518.827h853.333v-290.133h58.027c3.413 0 10.24 0 13.653-3.413v317.44c0 27.307-20.48 47.787-47.787 47.787h-901.12c-27.307 0-47.787-20.48-47.787-47.787v-566.613c0-27.307 20.48-47.787 47.787-47.787h337.92v-109.227h-129.707c-23.893 0-44.373-20.48-44.373-44.373s20.48-44.373 44.373-44.373h481.28c-6.827 10.24-10.24 20.48-10.24 30.72v58.027h-3.413zM993.28 492.373h-201.387c-17.067 0-30.72-13.653-30.72-30.72v-409.6c0-17.067 13.653-30.72 30.72-30.72h201.387c17.067 0 30.72 13.653 30.72 30.72v409.6c0 13.653-13.653 30.72-30.72 30.72zM890.88 38.4c-6.827 0-13.653 6.827-13.653 13.653s6.827 13.653 13.653 13.653 13.653-6.827 13.653-13.653c0-6.827-6.827-13.653-13.653-13.653zM1003.52 82.773h-225.28v341.333h225.28v-341.333z" />
<glyph unicode="&#xe904;" glyph-name="device" d="M292.572 301.714h438.857v292.571h-438.857v-292.571zM341.334 545.524h341.333v-195.047h-341.333v195.047zM512.001 960c-282.832 0-512-229.23-512-512 0-282.832 229.23-512 512-512 282.832 0 512 229.23 512 512-0.001 282.832-229.231 512-512 512zM780.191 278.482c0-14.808-12.211-26.813-26.967-26.813h-70.557v-47.25c0-13.592-10.821-24.609-24.381-24.609-13.465 0-24.381 10.809-24.381 24.609v47.25h-97.524v-42.117c0-13.592-10.821-24.609-24.381-24.609-13.465 0-24.381 10.809-24.381 24.609v42.117h-97.524v-42.117c0-13.592-10.821-24.609-24.381-24.609-13.465 0-24.381 10.809-24.381 24.609v42.117h-70.557c-14.893 0-26.967 12.103-26.967 26.813v336.469c0 14.808 12.211 26.813 26.967 26.813h70.601c-0.028 0.451-0.044 0.979-0.044 1.511v48.306c0 13.592 10.821 24.609 24.381 24.609 13.465 0 24.381-10.809 24.381-24.609v-48.305c0-0.508-0.015-1.012-0.045-1.511h97.612c-0.028 0.451-0.044 0.979-0.044 1.511v48.306c0 13.592 10.821 24.609 24.381 24.609 13.465 0 24.381-10.809 24.381-24.609v-48.305c0-0.508-0.015-1.012-0.045-1.511h97.612c-0.028 0.451-0.044 0.979-0.044 1.511v48.306c0 13.592 10.821 24.609 24.381 24.609 13.465 0 24.381-10.809 24.381-24.609v-48.305c0-0.508-0.015-1.012-0.045-1.511h70.602c14.893 0 26.967-12.103 26.967-26.813v-336.469z" />
<glyph unicode="&#xe905;" glyph-name="DHCP" d="M502.208 352.832h-329.024c-0.019 0-0.042 0-0.064 0-21.137 0-38.272-17.135-38.272-38.272 0-0.023 0-0.045 0-0.068v0.004-186.368c0-10.112 4.032-20.032 11.264-27.072 6.902-6.957 16.466-11.264 27.037-11.264 0.012 0 0.025 0 0.037 0h677.63c0.038 0 0.083 0 0.128 0 21.102 0 38.208 17.106 38.208 38.208 0 0.045 0 0.090 0 0.135v-0.007 186.368c0 0.019 0 0.042 0 0.064 0 21.137-17.135 38.272-38.272 38.272-0.023 0-0.045 0-0.068 0h0.004v0.128h-322.368zM587.072 410.688v-0.32l263.744 1.28c53.605-0.036 97.051-43.482 97.088-97.084v-186.372c0-26.88-10.752-51.072-28.416-68.672-17.499-17.555-41.704-28.416-68.446-28.416-0.080 0-0.159 0-0.239 0h-677.62c-0.076 0-0.166 0-0.256 0-53.514 0-96.896 43.382-96.896 96.896 0 0.068 0 0.135 0 0.203v-0.010 186.368c0 0.057 0 0.125 0 0.192 0 53.514 43.382 96.896 96.896 96.896 0.090 0 0.18 0 0.27 0h-0.014l270.4-0.96zM175.872 221.376c0 18.624 7.552 35.52 19.84 47.744 12.189 12.335 29.106 19.975 47.808 19.975s35.619-7.639 47.801-19.968l0.007-0.007c12.269-12.208 19.862-29.105 19.862-47.776s-7.593-35.568-19.859-47.773l-0.003-0.003c-12.176-12.255-29.040-19.84-47.675-19.84-0.047 0-0.094 0-0.141 0h0.007c-0.057 0-0.125 0-0.192 0-37.255 0-67.456 30.201-67.456 67.456 0 0.068 0 0.135 0 0.203v-0.010zM225.856 238.848c-4.608-4.608-7.296-10.944-7.296-17.472s2.56-12.864 7.296-17.472c4.474-4.476 10.645-7.257 17.465-7.296h0.007c13.677 0.036 24.759 11.096 24.832 24.761v0.007c-0.108 13.658-11.169 24.696-24.825 24.768h-0.007c-6.83-0.024-13.005-2.808-17.471-7.295l-0.001-0.001zM342.272 221.376c0 18.624 7.552 35.52 19.84 47.744 12.237 12.389 29.223 20.062 48.001 20.062 37.255 0 67.456-30.201 67.456-67.456 0-0.123 0-0.246-0.001-0.369v0.019c0-18.624-7.552-35.52-19.84-47.68l-0.128-0.128c-12.176-12.312-29.069-19.937-47.744-19.937s-35.568 7.625-47.738 19.931l-0.006 0.006c-12.252 12.098-19.841 28.894-19.841 47.462 0 0.122 0 0.243 0.001 0.365v-0.019zM392.192 238.848c-4.608-4.608-7.296-10.944-7.296-17.472s2.56-12.864 7.296-17.472c4.509-4.468 10.716-7.23 17.568-7.23s13.059 2.761 17.57 7.231l-0.002-0.002c4.455 4.479 7.209 10.654 7.209 17.472 0 13.684-11.093 24.777-24.777 24.777-6.866 0-13.080-2.793-17.567-7.304l-0.001-0.001zM92.352 772.928h-87.040v-295.488h84.096c46.208 0 84.608 13.888 114.112 41.344 29.632 27.584 44.672 64.576 44.672 109.952 0 43.712-15.104 79.104-44.8 105.216-29.44 25.856-66.816 38.976-111.040 38.976zM54.656 727.616h36.224c32 0 57.984-8.448 77.376-25.088 19.136-16.384 28.864-41.536 28.864-74.688 0-33.344-9.472-59.456-28.288-77.696-18.816-18.304-45.568-27.584-79.552-27.584h-34.624v205.056zM467.648 772.928h49.344v-295.488h-49.344v127.36h-130.24v-127.36h-49.344v295.488h49.344v-122.816h130.24v122.816zM777.6 765.632l3.84-1.664v-53.248l-9.472 5.248c-19.2 10.624-40.576 16-63.488 16-30.016 0-53.632-9.6-72.384-29.44-18.56-19.648-28.032-46.72-28.032-80.512 0-32 8.832-57.6 26.048-76.224 17.344-18.688 39.616-27.776 67.968-27.776 26.688 0 50.112 6.080 69.696 18.048l9.664 5.952v-50.304l-3.392-1.792c-21.632-11.392-49.024-17.216-81.344-17.216-42.176 0-76.352 13.632-101.76 40.64-25.216 26.816-37.952 62.656-37.952 106.496 0 47.040 14.4 85.504 42.688 114.368 28.352 28.864 64.832 43.52 108.352 43.52 27.776-0.064 51.136-4.096 69.568-12.096zM985.344 749.248c-17.984 15.744-43.328 23.68-75.328 23.68h-86.656v-295.488h49.28v105.664h30.144c30.72-0.704 57.408 7.744 78.272 25.92 21.056 18.432 31.744 42.688 31.744 72.256-0.064 29.184-9.216 52.032-27.456 67.968zM872.64 728h30.784c39.744 0 58.24-15.296 58.24-48.128 0-16.896-4.992-29.44-15.104-38.336-10.304-8.96-25.984-13.504-46.592-13.504h-27.392v99.968z" />
<glyph unicode="&#xe906;" glyph-name="home" d="M1004.383 459.794l-492.534 492.534-492.534-492.534c-15.452-15.452-15.452-38.63 0-54.082s38.63-15.452 54.082 0l56.014 56.014 3.863-467.424c0-27.041 23.178-50.219 50.219-50.219h654.781c27.041 0 50.219 23.178 50.219 50.219l5.795 465.493 56.014-56.014c7.726-7.726 17.384-11.589 27.041-11.589s19.315 3.863 27.041 11.589c13.521 17.384 13.521 40.562 0 56.014zM592.972-13.425h-160.315v160.315c0 17.384 23.178 40.562 40.562 40.562h81.123c17.384 0 40.562-23.178 40.562-40.562v-160.315z" />
<glyph unicode="&#xe907;" glyph-name="IP" d="M663.68 53.312c48.412 64.092 86.48 139.165 109.91 220.441l1.194 4.839c55.68 4.928 99.84 10.688 131.008 15.424-44.461-110.834-130.948-196.863-239.233-239.7l-2.879-1.004zM118.080 294.272c31.36-4.672 75.712-10.368 131.072-15.36 24.619-86.235 62.712-161.417 112.427-227.342l-1.259 1.742c-111.255 43.875-197.801 130.004-241.225 238.1l-1.015 2.86zM362.88 843.712c-48.545-64.481-87.096-139.778-111.472-221.199l-1.296-5.041c-56.192-4.992-100.544-10.752-131.904-15.488 44.79 111.694 132.294 198.238 241.773 240.738l2.899 0.99zM905.92 601.728c-32.204 5.199-77.444 10.66-123.070 14.78l-8.834 0.644c-25.681 86.585-64.279 161.991-114.212 228.387l1.316-1.827c112.474-43.516 200.039-130.163 243.786-239.123l1.014-2.861zM789.44 548.48c65.28-6.4 112.64-13.632 137.344-17.792 5.193-24.888 8.166-53.489 8.166-82.784s-2.973-57.895-8.634-85.516l0.468 2.732c-24.32-4.224-71.168-11.52-137.024-17.92 5.13 30.301 8.063 65.208 8.064 100.799v0.001c0 35.072-3.072 68.544-8.32 100.48zM545.344 334.4v227.2c64.768-0.768 123.52-3.52 174.912-7.232 6.885-32.292 10.827-69.393 10.827-107.415 0-37.339-3.802-73.791-11.041-108.988l0.597 3.475c-51.072-3.648-109.824-6.4-175.36-7.040zM478.656 869.504v-241.152c-57.6-0.576-109.888-2.624-156.544-5.504 42.496 127.168 119.936 215.552 149.568 246.144l6.912 0.512zM552.384 868.992c29.696-30.528 107.264-118.784 149.76-246.4-45.407 3.066-100.082 5.148-155.113 5.746l-1.687 0.014v241.152l7.040-0.512zM292.928 448c0 37.44 4.096 72.96 10.88 106.624 50.932 3.803 111.84 6.325 173.2 6.963l1.584 0.013v-227.2c-63.234 0.706-124.327 3.319-184.9 7.798l9.54-0.566c-6.472 31.845-10.176 68.448-10.176 105.916 0 0.159 0 0.318 0 0.477v-0.025zM88.96 448c0 28.352 2.88 56.064 8.192 82.816 24.384 4.288 71.36 11.52 137.344 17.984-5.294-30.212-8.32-65-8.32-100.494 0-0.108 0-0.215 0-0.323v0.017c0-35.2 2.944-68.672 8-100.48-55.785 5.343-102.651 11.629-148.985 19.475l12.025-1.683c-5.194 24.853-8.176 53.417-8.192 82.676v0.012zM471.104 27.072c-66.296 67.628-117.74 150.077-148.882 241.897l-1.326 4.503c47.232-3.072 100.096-5.248 157.696-5.888v-241.088l-7.488 0.576zM552.896 27.072l-7.488-0.64v241.152c56.926 0.571 111.905 2.608 166.492 6.084l-8.86-0.452c-32.485-96.221-83.901-178.58-150.246-246.248l0.102 0.104zM512 960c-282.304 0-512-229.696-512-512s229.696-512 512-512 512 229.696 512 512-229.696 512-512 512z" />
<glyph unicode="&#xe908;" glyph-name="log-out" d="M972.8 448l-307.2 256v-153.6h-358.4v-204.8h358.4v-153.6l307.2 256zM153.6 806.4h409.6v102.4h-409.6c-56.32 0-102.4-46.080-102.4-102.4v-716.8c0-56.32 46.080-102.4 102.4-102.4h409.6v102.4h-409.6v716.8z" />
<glyph unicode="&#xe909;" glyph-name="password" d="M136.534 499.435v-486.848c0.121-14.046 11.536-25.387 25.599-25.387 0.015 0 0.031 0 0.046 0h691.112c14.336 0 25.643 11.307 25.643 25.365v486.848c-0.133 14.037-11.543 25.365-25.599 25.365-0.015 0-0.031 0-0.046 0h-691.112c-14.336 0-25.643-11.307-25.643-25.365zM85.334 499.435c0 0.007 0 0.014 0 0.022 0 42.274 34.27 76.544 76.544 76.544 0.105 0 0.21 0 0.315-0.001h691.098c0.013 0 0.028 0 0.043 0 42.333 0 76.666-34.251 76.8-76.552v-486.861c0-0.013 0-0.028 0-0.043 0-42.274-34.27-76.544-76.544-76.544-0.105 0-0.21 0-0.315 0.001h-691.098c-0.013 0-0.028 0-0.043 0-42.333 0-76.666 34.251-76.8 76.552v486.861zM290.133 742.4c0 91.733 74.603 166.4 166.421 166.4h89.579c91.899-0.012 166.397-74.502 166.421-166.398v-91.522s7.083-17.557 27.221-17.557c20.16 0 23.979 17.536 23.979 17.536v91.541c-0.021 120.171-97.515 217.6-217.643 217.6h-89.579c-120.171 0-217.6-97.664-217.6-217.6v-192l51.2 9.813v182.187zM290.133 742.4c0 91.733 74.603 166.4 166.421 166.4h89.579c91.899-0.012 166.397-74.502 166.421-166.398v-91.522h51.2v91.52c-0.021 120.171-97.515 217.6-217.643 217.6h-89.579c-120.171 0-217.6-97.664-217.6-217.6v-192l51.2 9.813v182.187zM495.829 383.168v-241.131c0-14.138 11.462-25.6 25.6-25.6s25.6 11.462 25.6 25.6v0 241.131c0 14.138-11.462 25.6-25.6 25.6s-25.6-11.462-25.6-25.6v0z" />
<glyph unicode="&#xe90a;" glyph-name="ping" d="M516.714-63.978c-1.4-0.014-3.054-0.022-4.71-0.022-282.764 0-511.989 229.225-511.989 511.989s229.225 511.989 511.989 511.989c282.756 0 511.977-229.213 511.989-511.966v-0.001c1.28-281.44-225.838-510.658-507.279-511.989zM176.497 405.618c32.255 0 56.498 6.809 72.805 20.48 16.281 13.619 24.422 33.663 24.422 60.108 0 12.39-1.997 23.551-6.016 33.484-4.012 9.953-10.007 18.365-17.546 25.081l-0.066 0.058c-7.63 6.725-16.873 11.812-27.064 14.607l-0.481 0.113c-10.752 3.072-26.111 4.608-46.079 4.608h-67.429c-11.571 0-20.019-2.483-25.343-7.449-5.299-4.966-7.961-13.235-7.961-24.806v-200.137c0-10.393 2.432-18.278 7.27-23.654s11.213-8.064 19.123-8.064c0.172-0.004 0.375-0.007 0.578-0.007 7.223 0 13.711 3.149 18.165 8.149l0.021 0.024c4.966 5.427 7.424 13.389 7.424 23.91v73.496h48.204zM163.748 524.656c23.5 0 39.014-3.84 46.591-11.52 6.707-7.219 10.086-16.537 10.086-27.98 0-9.574-2.202-17.305-6.553-23.219-4.352-5.888-10.726-10.137-19.046-12.749-8.32-2.586-18.688-3.891-31.078-3.891h-35.43v79.358h35.43zM319.777 332.122c0-10.649 2.458-18.636 7.373-24.012 4.889-5.376 11.11-8.064 18.688-8.064 7.91 0 14.31 2.662 19.2 7.987 4.915 5.299 7.347 13.312 7.347 24.063v204.591c0 10.752-2.432 18.739-7.347 24.012-4.889 5.248-11.289 7.859-19.2 7.859-7.68 0-13.952-2.637-18.79-7.936-4.838-5.325-7.27-13.312-7.27-23.935v-204.565zM499.741 537.046c-2.816 4.48-5.581 8.806-8.243 12.928-2.386 3.796-4.953 7.095-7.81 10.116l0.028-0.030c-2.482 2.547-5.417 4.638-8.677 6.146l-0.181 0.075c-3.354 1.536-7.424 2.304-12.134 2.304-6.016 0-11.622-1.69-16.819-5.069-4.938-3.109-8.786-7.55-11.090-12.821l-0.072-0.184c-1.894-4.864-2.816-11.52-2.816-20.019v-200.341c0-9.779 2.227-17.254 6.707-22.4 4.48-5.12 10.445-7.68 17.894-7.68 7.193 0 13.107 2.509 17.715 7.603 4.608 5.069 6.912 12.569 6.912 22.476v152.163l98.66-151.267c2.816-4.122 5.657-8.192 8.499-12.134 2.816-3.942 5.888-7.424 9.216-10.368 3.302-2.944 6.835-5.12 10.624-6.451 3.763-1.357 8.013-2.048 12.749-2.048 18.892 0 28.339 11.392 28.339 34.201v204.207c0 10.035-2.202 17.561-6.553 22.579s-10.342 7.526-17.894 7.526c-7.321 0-13.133-2.509-17.459-7.526-4.301-5.017-6.451-12.544-6.451-22.579v-154.442l-101.118 153.034zM943.969 410.047c0 8.96-1.562 15.692-4.685 20.198-2.871 4.246-7.156 7.349-12.168 8.646l-0.146 0.032c-5.157 1.245-11.077 1.959-17.164 1.959-0.509 0-1.016-0.005-1.523-0.015l0.076 0.001h-59.672c-7.219 0-12.902-1.894-17.1-5.683-3.872-3.405-6.303-8.369-6.303-13.902 0-0.153 0.002-0.305 0.006-0.457v0.023c0-7.091 2.509-12.109 7.526-15.052s12.441-4.429 22.246-4.429h40.729v-42.162c-9.255-5.166-20.022-9.798-31.282-13.314l-1.229-0.331c-9.997-3.024-21.486-4.765-33.382-4.765-0.306 0-0.612 0.001-0.917 0.003h0.047c-25.036 0-44.543 8.192-58.546 24.601-14.003 16.435-20.992 39.858-20.992 70.322 0 14.080 1.792 26.879 5.401 38.45 3.584 11.571 8.806 21.324 15.59 29.311 6.592 7.749 14.788 13.927 24.095 18.057l0.429 0.17c9.217 3.989 19.951 6.309 31.227 6.309 0.479 0 0.956-0.004 1.433-0.013l-0.072 0.001c11.827 0 21.504-1.792 29.132-5.325s13.67-7.91 18.176-13.107c4.48-5.197 9.984-12.851 16.46-23.014 4.549-6.193 11.804-10.167 19.987-10.167 6.742 0 12.854 2.698 17.315 7.074l-0.004-0.004c4.522 4.13 7.349 10.053 7.349 16.635 0 0.092-0.001 0.183-0.002 0.275v-0.014c0 6.144-2.125 13.184-6.4 21.094-5.010 8.822-11.334 16.28-18.804 22.391l-0.14 0.111c-8.371 7.091-19.302 12.953-32.767 17.612s-28.927 6.989-46.412 6.989c-21.248 0-40.242-3.072-57.010-9.293-16.674-6.057-30.927-15.202-42.712-26.84l0.012 0.012c-11.604-11.734-20.679-25.994-26.326-41.879l-0.247-0.795c-5.733-15.955-9.048-34.365-9.048-53.549 0-0.668 0.004-1.335 0.012-2l-0.001 0.101c0-20.556 3.098-39.167 9.318-55.807 6.195-16.64 15.078-30.822 26.623-42.495 11.597-11.699 25.599-20.608 41.983-26.751 16.435-6.144 34.61-9.216 54.578-9.216 0.451-0.004 0.984-0.006 1.517-0.006 16.329 0 32.158 2.141 47.221 6.158l-1.277-0.29c17.295 4.894 32.343 11.229 46.392 19.131l-1.056-0.546c5.453 2.944 9.907 6.016 13.389 9.216 3.211 2.833 5.676 6.437 7.114 10.525l0.054 0.176c1.28 3.968 1.946 9.241 1.946 15.872v49.765z" />
<glyph unicode="&#xe90b;" glyph-name="ram" d="M1001.958 766.723c-21.437 123.565-49.080 148.905-171.686 170.406-171.43 30.011-467 30.459-637.278 0.832-123.437-21.437-148.713-49.208-170.15-171.878-30.011-171.558-30.523-466.296-0.96-636.83 21.373-123.629 49.080-148.905 171.686-170.406 171.494-30.011 467-30.523 637.342-0.96 123.565 21.501 148.777 49.144 170.214 171.942 29.947 171.622 30.395 466.488 0.832 636.958zM702.036 228.31h-385.925c-147.177 0-145.45 120.238-145.45 145.45s20.989 140.33 143.402 140.33c122.349 0 136.107-123.565 136.107-123.565l71.989-0.896v35.515h50.36v-36.41h17.981v36.346h47.993v-36.922h41.978v-49.208l-270.486 0.64-2.944 35.067c-6.079 90.866-92.466 90.29-92.466 90.29-91.186 0-94.769-94.769-94.769-94.769 0-97.329 99.569-88.754 99.569-88.754h382.661s98.353-1.216 98.353 100.785c0 117.422-159.527 111.535-159.527 111.535 0 51.576-39.61 124.717-124.781 124.717s-113.966-104.368-113.966-104.368c0 4.799-39.61 23.996-39.61 23.996s19.197 129.58 155.944 129.58 158.376-122.349 158.376-122.349c8.383 0 176.357-13.182 176.357-163.111s-151.209-153.768-151.209-153.768z" />
<glyph unicode="&#xe90c;" glyph-name="reset" d="M512 948c-276.2 0-500-223.9-500-500s223.8-500 500-500c276.1 0 500 223.8 500 500s-223.8 500-500 500zM651.8 255.5c-41.4-29-89.6-44.1-139-44.1-8.1 0-16.2 0.5-24.3 1.3-1.6 0.2-3.3 0.5-4.9 0.7-4.4 0.5-9 0.9-13.5 1.8-1.4 0.1-2.6 0.5-3.9 0.9-3.3 0.6-6.3 1.4-9.6 2.1-4.8 1.1-9.5 2.3-14.2 3.6-2.6 0.8-5 1.6-7.5 2.5-5.3 1.8-10.6 3.7-15.8 5.8-1.5 0.6-2.9 1.3-4.4 1.9-6 2.6-11.9 5.5-17.7 8.6-0.6 0.3-1.1 0.6-1.6 0.9-20 11-38.4 24.7-54.7 41-0.4 0.5-0.8 0.9-1.3 1.4-4.8 5-9.6 10-14 15.4-1.2 1.6-2.2 3-3.4 4.3-3 3.7-6.1 7.4-8.9 11.5-0.4 0.5-0.6 1.1-0.9 1.7-27.1 39.3-43.1 86.7-43.1 137.8h-48.6l77.8 116.7 77.9-116.8h-48.7c0-43.5 15.2-83.5 40.5-115.1 0.7-1.1 1.4-1.9 2.1-2.8 3.5-4.3 7.2-8.3 11-12.1 0.2-0.2 0.4-0.5 0.6-0.7 12.4-12.6 26.5-23 42.1-31.6l0.6-0.3c4.6-2.4 9.3-4.7 14.1-6.8 0.9-0.4 1.9-0.7 2.8-1.1 4.1-1.7 8.3-3.2 12.6-4.5 1.7-0.7 3.4-1.2 5.1-1.9 3.7-1.1 7.4-1.9 11.2-2.7 2.3-0.5 4.6-1.2 7-1.6 3.9-0.8 7.7-1.3 11.7-1.8 2-0.3 4.1-0.6 6.1-0.8 5-0.4 10-0.7 15.1-0.8 38.4-0.5 76.1 10.8 108.2 33.3 13.2 9.3 31.3 6.1 40.7-7.1 9.2-13.1 6-31.3-7.2-40.6zM726.3 337.9l-78 116.8h48.7c0 44.4-15.8 85.2-42 117.1-0.2 0.1-0.2 0.3-0.3 0.4-18.6 22.6-42.5 40.5-69.7 52.2-0.5 0.2-0.9 0.5-1.4 0.7-4.4 1.9-9.1 3.5-13.9 5.1-1.3 0.5-2.5 0.9-3.9 1.3-4.1 1.3-8.2 2.3-12.5 3.2-1.8 0.4-3.7 0.9-5.6 1.2-4.3 0.9-8.6 1.5-13 2.1-1.6 0.2-3.3 0.5-4.9 0.6-5.3 0.5-10.8 0.8-16.3 0.8-38.2 0.4-75.4-11-107.3-33.3-13.2-9.3-31.5-6-40.7 7.1-9.3 13.3-6 31.4 7.1 40.7 41.3 29 89.5 43.9 138.8 43.9 0.2 0 0.4 0.1 0.6 0.1 1.2 0 2.3-0.2 3.5-0.2 6.4-0.1 12.8-0.4 19.3-1 2.7-0.3 5.3-0.7 7.9-1 3.9-0.5 7.7-0.8 11.5-1.4 1.5-0.3 2.8-0.7 4.2-0.9 2.8-0.6 5.8-1.3 8.6-1.9 5.1-1.2 10.2-2.5 15.3-4.1 2.1-0.6 4.2-1.4 6.2-2 5.8-2 11.6-4 17.2-6.3 1-0.4 1.9-0.9 2.9-1.3 35-15.1 66-38.3 90.8-68.2 0.4-0.6 0.8-1.2 1.2-1.6 3.7-4.5 7.2-9 10.7-13.8 0.3-0.6 0.6-1.3 1-1.9 27-39.1 42.8-86.4 42.8-137.4h48.9l-77.7-117z" />
<glyph unicode="&#xe90d;" glyph-name="set" d="M984.823 523.013h-46.78c-21.463 0-44.168 16.75-50.601 37.226l-26.813 65.249c-10.158 18.884-6.019 46.748 9.108 61.906l33.182 33.15c15.222 15.222 15.222 39.997 0 55.187l-55.155 55.091c-15.19 15.158-39.997 15.158-55.155 0l-33.182-33.15c-15.094-15.158-43.022-19.298-61.938-9.171l-65.154 26.845c-20.444 6.337-37.258 29.106-37.258 50.537v46.843c0 21.4-17.578 39.010-38.946 39.010h-77.924c-21.463 0-39.041-17.61-39.041-39.010v-46.78c0-21.463-16.718-44.232-37.226-50.537l-65.249-26.845c-18.916-10.19-46.748-6.050-61.842 9.139l-33.278 33.15c-15.158 15.126-39.965 15.126-55.091 0l-55.091-55.091c-15.19-15.19-15.19-39.965 0-55.123l33.086-33.182c15.222-15.158 19.33-43.022 9.171-61.906l-26.845-65.313c-6.337-20.476-29.042-37.258-50.537-37.258l-46.748 0.064c-21.431 0-39.010-17.514-39.010-38.978v-77.955c0-21.463 17.578-39.041 39.010-39.041h46.748c21.495-0.032 44.168-16.75 50.442-37.226l26.94-65.249c10.095-18.916 5.987-46.843-9.171-61.969l-33.182-33.118c-15.094-15.19-15.094-39.997 0-55.123l55.187-55.187c15.126-15.158 39.933-15.158 55.091 0l33.214 33.182c15.094 15.158 42.926 19.266 61.747 9.076l65.409-26.877c20.508-6.369 37.226-29.074 37.226-50.505v-46.684c0-21.4 17.483-38.978 39.041-38.978h77.924c21.368 0 38.946 17.578 38.946 38.978v46.684c0 21.431 16.814 44.136 37.258 50.505l65.281 26.877c18.884 10.19 46.811 6.050 61.969-9.076l33.023-33.182c15.19-15.158 39.997-15.158 55.155 0l55.155 55.187c15.222 15.158 15.222 39.965 0 55.123l-33.182 33.118c-15.158 15.158-19.266 43.086-9.108 61.969l26.813 65.249c6.433 20.476 29.201 37.194 50.601 37.194h46.78c21.4 0 38.946 17.578 38.946 39.010v78.019c-0.032 21.431-17.546 38.946-38.946 38.946zM712.075 445.153c0-107.666-87.254-194.857-194.857-194.857-107.634 0-194.888 87.158-194.888 194.857 0 107.571 87.254 194.825 194.888 194.825 107.603 0 194.857-87.254 194.857-194.825z" />
<glyph unicode="&#xe90e;" glyph-name="softap" d="M513.896 956.204c-281.72 0-510.1-228.38-510.1-510.103 0-281.721 228.38-510.101 510.1-510.101 281.723 0 510.104 228.38 510.104 510.101s-228.381 510.103-510.104 510.103zM785.908 255.28c0-51.956-42.118-94.075-94.075-94.075s-94.075 42.119-94.075 94.075c0 15.782 3.893 30.654 10.76 43.716l-223.302 242.082c-12.421-7.826-27.323-12.861-43.315-13.875l-0.272-0.014v-178.063c48.908-3.355 87.542-44.086 87.542-93.847 0-51.956-42.119-94.075-94.075-94.075s-94.076 42.119-94.076 94.075c0 46.157 33.241 84.547 77.090 92.543v180.824c-43.55 8.236-76.489 46.481-76.489 92.427 0 51.957 42.119 94.076 94.076 94.076s94.075-42.119 94.075-94.076c0-25.299-9.989-48.263-26.235-65.17l218.808-237.208c13.863 15.183 32.638 25.802 53.809 29.354v180.357c-44.492 7.465-78.396 46.153-78.396 92.767 0 51.957 42.118 94.076 94.075 94.076s94.075-42.119 94.075-94.076c0-49.316-37.947-89.763-86.235-93.748v-178.397c48.288-3.984 86.235-44.431 86.235-93.748z" />
<glyph unicode="&#xe90f;" glyph-name="station" d="M640 640c0 70.692-57.306 128-128 128-70.692 0-128-57.308-128-128 0-45.354 23.608-85.166 59.184-107.904l-162.572-596.096h78.776l17.454 64h270.316l17.456-64h78.776l-162.572 596.096c35.574 22.738 59.182 62.55 59.182 107.904zM594.794 192h-165.588l17.454 64h130.68l17.454-64zM464.116 320l47.884 175.578 47.884-175.578h-95.768zM394.296 64l17.456 64h200.498l17.454-64h-235.408zM664.348 921.474c99.852-54.158 167.652-159.898 167.652-281.474s-67.8-227.316-167.652-281.474c44.066 70.126 71.652 170.27 71.652 281.474s-27.586 211.348-71.652 281.474zM856.348 921.474c99.852-54.158 167.652-159.898 167.652-281.474s-67.8-227.316-167.652-281.474c44.066 70.126 71.652 170.27 71.652 281.474s-27.586 211.348-71.652 281.474zM359.652 358.526c-99.852 54.16-167.652 159.898-167.652 281.474s67.8 227.314 167.652 281.474c-44.068-70.126-71.652-170.27-71.652-281.474s27.584-211.348 71.652-281.474zM0 640c0 121.576 67.8 227.314 167.652 281.474-44.068-70.126-71.652-170.27-71.652-281.474s27.584-211.348 71.652-281.474c-99.852 54.16-167.652 159.898-167.652 281.474z" />
<glyph unicode="&#xe910;" glyph-name="upgrade" d="M512 933.54c-264.599 0-481.571-216.972-481.571-484.217s216.972-481.571 481.571-481.571c267.245 0 481.571 216.972 481.571 481.571 2.646 267.245-214.326 484.217-481.571 484.217zM594.026 229.705h-164.052v55.566h164.052v-55.566zM594.026 314.377h-164.052v55.566h164.052v-55.566zM594.026 504.889v-111.132h-164.052v111.132h-82.026l164.052 164.052 164.052-164.052h-82.026z" />
<glyph unicode="&#xe911;" glyph-name="version" d="M657.043 336.363h-258.905c-11.968 0-22.095-4.144-30.382-12.429-8.283-8.282-12.426-18.409-12.426-30.376s4.143-22.208 12.426-30.721c8.287-8.514 18.414-12.772 30.382-12.772h258.905c11.964 0 22.091 4.259 30.378 12.772 8.283 8.512 12.426 18.753 12.426 30.721s-4.144 22.095-12.426 30.376c-8.288 8.287-18.413 12.429-30.378 12.429zM398.14 508.96c-11.969 0-22.096-4.258-30.382-12.772-8.284-8.515-12.426-18.755-12.426-30.724 0-11.964 4.143-22.089 12.426-30.375 8.287-8.282 18.413-12.426 30.382-12.426h258.904c11.964 0 22.092 4.145 30.378 12.426 8.281 8.287 12.425 18.413 12.425 30.375 0 11.969-4.144 22.209-12.426 30.724-8.288 8.515-18.413 12.772-30.378 12.772h-258.903zM513.002 928c-267.029 0-483.499-216.469-483.499-483.498s216.469-483.499 483.499-483.499c267.028 0 483.498 216.47 483.498 483.499s-216.47 483.498-483.498 483.498zM786.839 205.882c0-13.35-2.646-25.316-7.938-35.902s-12.312-19.562-21.061-26.924c-8.744-7.365-18.408-13.116-28.994-17.26s-20.943-6.212-31.069-6.212h-339.684c-8.745 0-18.294 2.532-28.651 7.592-10.356 5.062-20.021 11.737-29 20.023-8.974 8.282-16.454 17.718-22.438 28.303-5.984 10.59-8.974 21.633-8.974 33.141v469.462c0 9.664 2.187 19.677 6.56 30.032s10.356 19.906 17.948 28.65c7.594 8.745 16.225 15.992 25.89 21.747 9.669 5.754 19.792 8.629 30.382 8.629h263.734v-86.298h-0.001c0-9.206 1.383-18.756 4.144-28.65 2.761-9.9 7.134-19.104 13.116-27.615 5.985-8.515 13.579-15.533 22.786-21.059 9.203-5.522 20.021-8.283 32.448-8.283h100.8v-389.376zM786.839 638.752h-102.179c-4.606 0-8.631 1.726-12.083 5.177s-6.33 7.48-8.63 12.082c-2.302 4.604-4.029 9.321-5.178 14.156-1.153 4.83-1.727 8.629-1.727 11.39v85.607h2.069c3.682 0 7.479-0.576 11.392-1.727 3.913-1.149 8.4-3.336 13.465-6.56 5.062-3.218 11.391-7.824 18.986-13.808s17.145-14.036 28.65-24.164c12.427-11.505 22.325-21.056 29.687-28.65 7.369-7.595 13.009-14.037 16.916-19.329 3.914-5.293 6.328-9.782 7.248-13.464 0.92-3.68 1.383-6.904 1.383-9.664v-11.046z" />
<glyph unicode="&#xe912;" glyph-name="wifi" d="M512.13 122.212q-10.43 0-48.501 38.332t-38.071 48.762q0 16.689 32.595 28.162t53.977 11.473 53.977-11.473 32.595-28.162q0-10.43-38.071-48.762t-48.501-38.332zM652.94 263.543q-1.043 0-20.861 13.038t-52.934 26.076-67.015 13.038-67.015-13.038-52.673-26.076-21.121-13.038q-9.387 0-48.762 39.114t-39.375 48.501q0 6.78 5.215 11.995 40.678 40.157 102.217 63.104t121.514 22.947 121.514-22.947 102.217-63.104q5.215-5.215 5.215-11.995 0-9.387-39.375-48.501t-48.762-39.114zM795.314 405.396q-5.737 0-11.995 4.172-70.926 54.759-131.422 80.574t-139.767 25.815q-44.329 0-88.919-11.473t-77.706-27.64-59.192-32.334-41.2-27.64-16.167-11.473q-8.866 0-47.98 39.114t-39.114 48.501q0 6.258 5.215 11.473 68.84 68.84 166.886 106.911t198.177 38.071 198.177-38.071 166.886-106.911q5.215-5.215 5.215-11.473 0-9.387-39.114-48.501t-47.98-39.114zM936.646 546.727q-5.737 0-11.473 4.694-93.352 81.878-193.744 123.339t-219.298 41.461-219.298-41.461-193.744-123.339q-5.737-4.694-11.473-4.694-8.866 0-48.24 39.114t-39.375 48.501q0 6.78 5.215 11.995 97.524 97.002 232.075 150.197t274.84 53.195 274.84-53.195 232.075-150.197q5.215-5.215 5.215-11.995 0-9.387-39.375-48.501t-48.24-39.114z" />
<glyph unicode="&#xe913;" glyph-name="loading-2" d="M1023.85 430.968c-1.316 71.287-16.305 142.392-43.942 207.391-27.564 65.036-67.558 123.967-116.655 172.661-49.060 48.731-107.26 87.263-170.248 112.67-62.952 25.517-130.657 37.691-197.52 36.228-66.864-1.389-133.471-16.414-194.34-44.125-60.941-27.601-116.143-67.668-161.767-116.838-45.624-49.133-81.669-107.406-105.432-170.431-23.872-62.989-35.241-130.657-33.779-197.557 1.316-66.937 15.427-133.471 41.383-194.34 25.919-60.868 63.464-116.034 109.526-161.584 46.026-45.624 100.57-81.596 159.537-105.286 58.931-23.799 122.248-35.095 184.871-33.633 62.66 1.389 124.807 15.537 181.691 41.493 56.92 25.919 108.503 63.427 151.056 109.49 42.589 45.989 76.186 100.497 98.303 159.354 13.453 35.68 22.556 72.932 27.382 110.696 1.28-0.11 2.596-0.146 3.875-0.146 36.484 0 66.059 30.562 66.059 68.253 0 1.901-0.11 3.802-0.256 5.703h0.256zM918.893 249.716c-24.201-56.737-59.296-108.137-102.324-150.544-43.028-42.48-93.916-75.93-148.862-97.901-54.946-22.044-113.804-32.463-172.222-31.001-58.419 1.353-116.18 14.623-169.042 38.897-52.899 24.165-100.826 59.15-140.344 102.069-39.555 42.845-70.739 93.587-91.138 148.277-20.509 54.69-30.16 113.292-28.771 171.455 1.353 58.163 13.746 115.595 36.375 168.165 22.556 52.57 55.202 100.204 95.196 139.503 39.957 39.299 87.226 70.227 138.151 90.48 50.925 20.326 105.395 29.867 159.574 28.405 54.178-1.389 107.552-13.782 156.393-36.302 48.877-22.446 93.149-54.909 129.633-94.647 36.558-39.738 65.255-86.714 84.009-137.237 18.827-50.559 27.637-104.591 26.248-158.367h0.219c-0.146-1.901-0.219-3.765-0.219-5.703 0-35.205 25.773-64.158 58.894-67.851-6.434-37.142-17.072-73.371-31.768-107.698z" />
</font>
</defs>
</svg>
