<?xml version="1.0" encoding="utf-8"?>
<!-- Generator: Adobe Illustrator 24.3.0, SVG Export Plug-In . SVG Version: 6.00 Build 0)  -->
<svg version="1.1"
	 id="图层_1" inkscape:export-filename="/home/krzysztof/Desktop/what-you-need/what-you-need-make.png" inkscape:export-xdpi="96" inkscape:export-ydpi="96" inkscape:version="0.92.3 (d244b95, 2018-08-02)" sodipodi:docname="10.29 -What You Need- Picture KB.svg" xmlns:cc="http://creativecommons.org/ns#" xmlns:dc="http://purl.org/dc/elements/1.1/" xmlns:inkscape="http://www.inkscape.org/namespaces/inkscape" xmlns:rdf="http://www.w3.org/1999/02/22-rdf-syntax-ns#" xmlns:sodipodi="http://sodipodi.sourceforge.net/DTD/sodipodi-0.dtd" xmlns:svg="http://www.w3.org/2000/svg"
	 xmlns="http://www.w3.org/2000/svg" xmlns:xlink="http://www.w3.org/1999/xlink" x="0px" y="0px" viewBox="0 0 519.8 298.4"
	 style="enable-background:new 0 0 519.8 298.4;" xml:space="preserve">
<style type="text/css">
	.st0{fill:#F2F2F2;}
	.st1{fill:#FFFFFF;stroke:#606060;stroke-width:0.4408;stroke-linejoin:round;stroke-miterlimit:10;}
	.st2{fill:#FFFFFF;stroke:#000000;stroke-width:0.3641;stroke-miterlimit:10;stroke-dasharray:2.1847,2.1847;}
	.st3{fill:#FFFFFF;stroke:#000000;stroke-width:0.3896;stroke-miterlimit:10;stroke-dasharray:2.3372,2.3372;}
	.st4{fill:#FFFFFF;stroke:#000000;stroke-width:0.364;stroke-miterlimit:10;stroke-dasharray:2.1836,2.1836;}
	.st5{font-family:'HelveticaNeue-Medium';}
	.st6{font-size:11px;}
	.st7{font-family:'HelveticaNeue';}
	.st8{font-size:9.6817px;}
	.st9{fill:#FFFFFF;stroke:#606060;stroke-width:0.5;stroke-linejoin:round;stroke-miterlimit:10;}
	.st10{font-size:10px;}
	.st11{fill:#F2F2F2;stroke:#000000;stroke-width:0.6;stroke-miterlimit:10;}
	.st12{fill:#E6E6E6;stroke:#000000;stroke-width:0.6;stroke-miterlimit:10;}
	.st13{fill:none;stroke:#000000;stroke-width:0.4813;stroke-miterlimit:10;}
	.st14{fill:#FFFFFF;stroke:#020202;stroke-width:0.6;stroke-miterlimit:10;}
	.st15{fill:#CCCCCC;stroke:#000000;stroke-width:0.6;stroke-miterlimit:10;}
	.st16{fill:none;stroke:#020202;stroke-width:0.1925;stroke-linejoin:round;}
	.st17{fill:none;stroke:#000000;stroke-width:0.6;stroke-linecap:round;stroke-miterlimit:10;}
	.st18{fill:#FFFFFF;stroke:#000000;stroke-width:0.3208;stroke-linejoin:round;}
	.st19{fill:#FFFFFF;stroke:#000000;stroke-width:0.4;stroke-linecap:round;stroke-linejoin:round;stroke-miterlimit:10;}
	
		.st20{display:none;fill:#FFFFFF;stroke:#000000;stroke-width:0.3;stroke-linecap:round;stroke-linejoin:round;stroke-miterlimit:10;}
	.st21{fill:#FFFFFF;}
	.st22{display:none;fill:none;stroke:#000000;stroke-width:0.44;stroke-miterlimit:10;}
	.st23{fill:none;stroke:#000000;stroke-width:0.3;stroke-linejoin:round;stroke-miterlimit:10;}
	.st24{fill:#FFFFFF;stroke:#000000;stroke-width:0.3;stroke-linecap:round;stroke-linejoin:round;stroke-miterlimit:10;}
	.st25{fill:none;stroke:#000000;stroke-width:0.3;stroke-linecap:round;stroke-linejoin:round;stroke-miterlimit:10;}
	.st26{fill:none;stroke:#000000;stroke-width:0.6;stroke-linejoin:round;stroke-miterlimit:10;}
	.st27{fill:none;stroke:#000000;stroke-width:0.5;stroke-linejoin:round;stroke-miterlimit:10;}
	.st28{fill:#FFFFFF;stroke:#000000;stroke-width:0.3;stroke-linejoin:round;}
	.st29{fill:none;stroke:#000000;stroke-width:0.3;stroke-linejoin:round;stroke-miterlimit:10;stroke-dasharray:2.4667,2.4667;}
	.st30{fill:none;stroke:#000000;stroke-width:0.3;stroke-miterlimit:10;}
	.st31{fill:#FFFFFF;stroke:#000000;stroke-width:0.3;stroke-miterlimit:10;}
	.st32{fill:#FFFFFF;stroke:#000000;stroke-width:0.6;stroke-linejoin:round;stroke-miterlimit:10;}
	.st33{opacity:0.65;fill:#FFFFFF;}
	.st34{fill:#FFFFFF;stroke:#000000;stroke-width:0.3127;stroke-linejoin:round;}
	.st35{opacity:0.65;fill:#FFFFFF;stroke:#000000;stroke-width:0.6;stroke-linejoin:round;stroke-miterlimit:10;}
	.st36{opacity:0.65;fill:none;stroke:#000000;stroke-width:0.6;stroke-linejoin:round;stroke-miterlimit:10;}
	.st37{fill:#E5E5E5;}
	.st38{fill:#AFAFAF;stroke:#000000;stroke-width:0.3;stroke-miterlimit:10;}
</style>
<rect id="rect4403" y="0" inkscape:export-xdpi="96" inkscape:export-ydpi="96" class="st0" width="519.8" height="298.4">
</rect>
<polygon class="st1" points="338.1,73.6 338.1,68.7 222.3,68.7 222.3,72.9 210.4,58 222.3,41.7 222.3,47.2 338.1,47.2 338.1,41.6 
	348.3,58 "/>
<rect x="14.6" y="13.8" class="st2" width="182.2" height="122.2"/>
<rect x="173.3" y="185.5" class="st3" width="174.9" height="98.2"/>
<rect x="363.6" y="14" class="st4" width="143.9" height="122"/>
<text id="text4721" transform="matrix(1 0 0 1 78.129 32.6998)" class="st5 st6">ESP Board</text>
<text id="text4721_2_" transform="matrix(1 0 0 1 230.4984 61.188)" class="st7 st8">Download / Log output</text>
<g>
	<polygon class="st9" points="470.8,175.5 466.3,171.5 455.2,184.3 387.7,261.5 391.7,265 369.5,262 362.4,239.4 367.5,243.9 
		435.2,166.4 446.1,153.9 440.8,149.3 463.2,154.7 	"/>
	<text id="text4721_3_" transform="matrix(0.6563 -0.7545 0.7545 0.6563 384.1393 249.8939)" class="st7 st10">AT command / response</text>
</g>
<g id="text4721_4_">
	<text transform="matrix(1 0 0 1 201.8707 205.1039)" class="st5 st6">USB to serial converter</text>
</g>
<g>
	<g>
		<path id="rect4423" class="st11" d="M395.7,27.4h82c1.4,0,2.5,1.1,2.5,2.5v56c0,1.4-1.1,2.5-2.5,2.5h-82c-1.4,0-2.5-1.1-2.5-2.5
			V30C393.1,28.6,394.2,27.4,395.7,27.4z"/>
		<path id="path4425" inkscape:connector-curvature="0" class="st12" d="M489.7,122H384.1c-2.3,0-3.7-2.2-3.1-4.5L392.5,91
			c0.4-1.5,1.9-2.7,3.4-2.7h81.4c1.6,0,3,1.1,3.4,2.6l11.9,26.5C493.5,119.7,492,122,489.7,122L489.7,122z"/>
		<path id="path4427" inkscape:connector-curvature="0" class="st13" d="M472.6,106.5h-73c-1.3,0-2.2-1.1-1.9-2.1l3.8-11.2
			c0.4-0.8,1.1-1.3,2-1.3h64.6c0.9,0,1.7,0.4,2,1.3l4.1,11.2C474.9,105.4,473.9,106.5,472.6,106.5z"/>
		<rect id="rect4429" x="397.1" y="32.7" class="st14" width="79.1" height="50.3"/>
		<path id="path4431" inkscape:connector-curvature="0" class="st15" d="M445.4,115.5h-17.6c-0.6,0-1.1-0.5-1.1-1.1
			c0-0.2,0-0.3,0.1-0.4l1.7-4.3c0.2-0.4,0.6-0.7,1.1-0.7h14.1c0.4,0,0.9,0.3,1.1,0.7l1.8,4.3c0.3,0.5,0,1.2-0.6,1.4
			C445.6,115.4,445.5,115.5,445.4,115.5L445.4,115.5z"/>
		<polygon id="polygon4433" class="st16" points="407.2,92.6 404,92.6 403.6,93.7 406.8,93.7 		"/>
		<polygon id="polygon4435" class="st16" points="411.3,92.6 408,92.6 407.7,93.7 411,93.7 		"/>
		<polygon id="polygon4437" class="st16" points="415.4,92.6 412,92.6 411.8,93.7 415.1,93.7 		"/>
		<polygon id="polygon4439" class="st16" points="419.6,92.6 416.4,92.6 416.1,93.7 419.4,93.7 		"/>
		<polygon id="polygon4441" class="st16" points="423.8,92.6 420.5,92.6 420.3,93.7 423.6,93.7 		"/>
		<polygon id="polygon4443" class="st16" points="427.8,92.6 424.5,92.6 424.4,93.7 427.7,93.7 		"/>
		<polygon id="polygon4445" class="st16" points="431.8,92.6 428.6,92.6 428.5,93.7 431.7,93.7 		"/>
		<polygon id="polygon4447" class="st16" points="435.9,92.6 432.6,92.6 432.6,93.7 435.9,93.7 		"/>
		<polygon id="polygon4449" class="st16" points="440.1,92.6 436.8,92.6 436.8,93.7 440.1,93.7 		"/>
		<polygon id="polygon4451" class="st16" points="444,92.6 440.8,92.6 440.8,93.7 444.1,93.7 		"/>
		<polygon id="polygon4453" class="st16" points="448.2,92.6 444.9,92.6 445,93.7 448.4,93.7 		"/>
		<polygon id="polygon4455" class="st16" points="452.3,92.6 449,92.6 449.1,93.7 452.4,93.7 		"/>
		<polygon id="polygon4457" class="st16" points="456.3,92.6 453.1,92.6 453.2,93.7 456.6,93.7 		"/>
		<polygon id="polygon4459" class="st16" points="460.5,92.6 457.2,92.6 457.5,93.7 460.7,93.7 		"/>
		<polygon id="polygon4461" class="st16" points="464.5,92.6 461.2,92.6 461.5,93.7 464.7,93.7 		"/>
		<polygon id="polygon4463" class="st16" points="468.4,92.6 465.2,92.6 465.4,93.7 468.8,93.7 		"/>
		<polygon id="polygon4465" class="st16" points="407.2,94.1 403.4,94.1 402.9,95.7 406.6,95.7 		"/>
		<polygon id="polygon4467" class="st16" points="411.1,94.1 407.4,94.1 407,95.7 410.7,95.7 		"/>
		<polygon id="polygon4469" class="st16" points="415,94.1 411.3,94.1 411,95.7 414.7,95.7 		"/>
		<polygon id="polygon4471" class="st16" points="419,94.1 415.3,94.1 415,95.7 418.7,95.7 		"/>
		<polygon id="polygon4473" class="st16" points="423.1,94.1 419.4,94.1 419.1,95.7 422.8,95.7 		"/>
		<polygon id="polygon4475" class="st16" points="426.9,94.1 423.3,94.1 423.2,95.7 426.8,95.7 		"/>
		<polygon id="polygon4477" class="st16" points="430.9,94.1 427.2,94.1 427.1,95.7 430.9,95.7 		"/>
		<polygon id="polygon4479" class="st16" points="434.9,94.1 431.2,94.1 431.1,95.7 434.8,95.7 		"/>
		<polygon id="polygon4481" class="st16" points="438.8,94.1 435.1,94.1 435.1,95.7 438.8,95.7 		"/>
		<polygon id="polygon4483" class="st16" points="442.8,94.1 439.1,94.1 439.2,95.7 442.9,95.7 		"/>
		<polygon id="polygon4485" class="st16" points="446.9,94.1 443.1,94.1 443.2,95.7 446.9,95.7 		"/>
		<polygon id="polygon4487" class="st16" points="450.8,94.1 447.1,94.1 447.3,95.7 451,95.7 		"/>
		<polygon id="polygon4489" class="st16" points="454.8,94.1 451.1,94.1 451.4,95.7 455.1,95.7 		"/>
		<polygon id="polygon4491" class="st16" points="458.8,94.1 455.1,94.1 455.4,95.7 459.2,95.7 		"/>
		<polygon id="polygon4493" class="st16" points="469.2,94 459.2,94 459.6,95.8 469.9,95.8 		"/>
		<polygon id="polygon4495" class="st16" points="410.4,96.1 402.8,96.1 402.2,98 410,98 		"/>
		<polygon id="polygon4497" class="st16" points="469.9,96.1 463.4,96.1 463.8,98 470.6,98 		"/>
		<polygon id="polygon4499" class="st16" points="470.6,98.5 466.5,98.5 466.9,100.4 471.3,100.4 		"/>
		<polygon id="polygon4501" class="st16" points="415.2,96.1 411.2,96.1 410.8,98 414.8,98 		"/>
		<polygon id="polygon4503" class="st16" points="424.6,96.1 420.7,96.1 420.4,98 424.4,98 		"/>
		<polygon id="polygon4505" class="st16" points="419.8,96.1 415.8,96.1 415.5,98 419.5,98 		"/>
		<polygon id="polygon4507" class="st16" points="429.3,96.1 425.3,96.1 425.1,98 429.2,98 		"/>
		<polygon id="polygon4509" class="st16" points="434.1,96.1 430.1,96.1 430.1,98 434,98 		"/>
		<polygon id="polygon4511" class="st16" points="438.7,96.1 434.8,96.1 434.7,98 438.8,98 		"/>
		<polygon id="polygon4513" class="st16" points="443.5,96.1 439.5,96.1 439.6,98 443.6,98 		"/>
		<polygon id="polygon4515" class="st16" points="448.1,96.1 444.2,96.1 444.3,98 448.4,98 		"/>
		<polygon id="polygon4517" class="st16" points="453,96.1 449,96.1 449.2,98 453.2,98 		"/>
		<polygon id="polygon4519" class="st16" points="457.6,96.1 453.7,96.1 453.9,98 458,98 		"/>
		<polygon id="polygon4521" class="st16" points="462.4,96.1 458.4,96.1 458.9,98 462.9,98 		"/>
		<polygon id="polygon4523" class="st16" points="422.1,98.4 418,98.4 417.7,100.4 421.8,100.4 		"/>
		<polygon id="polygon4525" class="st16" points="427.1,98.4 423,98.4 422.7,100.4 426.9,100.4 		"/>
		<polygon id="polygon4527" class="st16" points="431.7,98.4 427.8,98.4 427.6,100.4 431.6,100.4 		"/>
		<polygon id="polygon4529" class="st16" points="436.6,98.4 432.5,98.4 432.4,100.4 436.6,100.4 		"/>
		<polygon id="polygon4531" class="st16" points="441.4,98.4 437.3,98.4 437.3,100.4 441.5,100.4 		"/>
		<polygon id="polygon4533" class="st16" points="446.2,98.4 442.3,98.4 442.4,100.4 446.4,100.4 		"/>
		<polygon id="polygon4535" class="st16" points="451,98.4 446.9,98.4 447.2,100.4 451.3,100.4 		"/>
		<polygon id="polygon4537" class="st16" points="419.1,100.9 414.9,100.9 414.6,102.7 418.7,102.7 		"/>
		<polygon id="polygon4539" class="st16" points="420.2,103.4 416,103.4 415.6,105.2 420,105.2 		"/>
		<polygon id="polygon4541" class="st16" points="415.2,103.4 411,103.4 410.5,105.2 414.8,105.2 		"/>
		<polygon id="polygon4543" class="st16" points="424,100.9 419.8,100.9 419.5,102.7 423.7,102.7 		"/>
		<polygon id="polygon4545" class="st16" points="428.9,100.9 424.8,100.9 424.6,102.7 428.7,102.7 		"/>
		<polygon id="polygon4547" class="st16" points="433.8,100.9 429.6,100.9 429.5,102.7 433.7,102.7 		"/>
		<polygon id="polygon4549" class="st16" points="438.7,100.9 434.7,100.9 434.6,102.7 438.8,102.7 		"/>
		<polygon id="polygon4551" class="st16" points="443.6,100.9 439.5,100.9 439.5,102.7 443.8,102.7 		"/>
		<polygon id="polygon4553" class="st16" points="448.5,100.9 444.3,100.9 444.5,102.7 448.6,102.7 		"/>
		<polygon id="polygon4555" class="st16" points="453.3,100.9 449.2,100.9 449.4,102.7 453.6,102.7 		"/>
		<polygon id="polygon4557" class="st16" points="458.2,100.9 454,100.9 454.4,102.7 458.5,102.7 		"/>
		<polygon id="polygon4559" class="st16" points="452.3,103.5 448.2,103.5 448.4,105.2 452.6,105.2 		"/>
		<polygon id="polygon4561" class="st16" points="457.1,103.5 453,103.5 453.2,105.2 457.5,105.2 		"/>
		<polygon id="polygon4563" class="st16" points="463,100.9 459,100.9 459.3,102.7 463.5,102.7 		"/>
		<polygon id="polygon4565" class="st16" points="462.2,103.5 458.1,103.5 458.4,105.2 462.7,105.2 		"/>
		<polygon id="polygon4567" class="st16" points="456,98.4 451.9,98.4 452.2,100.4 456.3,100.4 		"/>
		<polygon id="polygon4569" class="st16" points="460.9,98.5 456.9,98.5 457.2,100.4 461.4,100.4 		"/>
		<polygon id="polygon4571" class="st16" points="465.8,98.5 461.8,98.5 462.2,100.4 466.3,100.4 		"/>
		<polygon id="polygon4573" class="st16" points="472,103.3 467.9,103.3 468.3,105.2 472.5,105.2 		"/>
		<polygon id="polygon4575" class="st16" points="412.4,98.5 402,98.5 401.4,100.4 411.9,100.4 		"/>
		<polygon id="polygon4577" class="st16" points="417.1,98.5 413.3,98.5 412.9,100.4 416.8,100.4 		"/>
		<polygon id="polygon4579" class="st16" points="409.3,100.9 401.2,100.9 400.6,102.8 408.7,102.8 		"/>
		<polygon id="polygon4581" class="st16" points="414.2,100.9 410.1,100.9 409.6,102.8 413.8,102.8 		"/>
		<polygon id="polygon4583" class="st16" points="471.5,100.9 463.8,100.8 464.3,102.8 472.1,102.8 		"/>
		<polygon id="polygon4585" class="st16" points="410.2,103.4 400.4,103.4 399.8,105.3 409.7,105.3 		"/>
		<polygon id="polygon4587" class="st16" points="447.5,103.4 420.9,103.4 420.6,105.3 447.7,105.3 		"/>
		<polygon id="polygon4589" class="st16" points="467.6,104.5 463.7,104.5 463.8,105.3 467.7,105.3 		"/>
		<polygon id="polygon4591" class="st16" points="467.2,103.4 463.4,103.4 463.6,104.1 467.4,104.1 		"/>
	</g>
	<line class="st17" x1="382.7" y1="118.8" x2="490.4" y2="118.8"/>
	<path id="path4703" inkscape:connector-curvature="0" class="st18" d="M383.3,97.3c-0.5-0.3-0.7-0.8-0.5-1.3l1.3-2.2
		c0.3-0.4,0.5-0.6,1-0.6h6.4l-1.8,4.2l-6,0.1C383.5,97.4,383.4,97.4,383.3,97.3z"/>
	<path id="path4703_2_" inkscape:connector-curvature="0" class="st18" d="M378.4,103.4l1.3-2.2c0.3-0.4,0.5-0.6,1-0.6h7.6l-1.8,4.2
		l-7.3,0.1C378.6,104.8,378.2,103.9,378.4,103.4z"/>
</g>
<path class="st19" d="M379.9,100.8c-0.5,0.2-1.4,0.8-3,1.6c-1.7,0.8-7.5,4.5-12,14.3c-2.3,5.1-4.5,11.8-6.1,21.8
	c-1.8,11.2-1.6,24.3-1.6,41.8c0,9.8-1.7,32.6-5.6,42.5c-1.2,3-3.7,9.5-7.4,13.6c-4.2,4.6-9.5,7.2-9.5,7.2c0.1,0,0,2.7,0,2.7
	c1.3-0.4,6.6-3.1,10.9-7.9c4.1-4.6,7.1-11.9,8-14.4c3.8-9.9,5.6-32.7,5.6-42.6c0-17.5-0.2-30.6,1.6-41.8c1.6-10,3.8-16.7,6.1-21.8
	c2.7-5.9,6.1-9.8,8.8-12.1c2.4-2.1,2.9-2.4,2.7-2.3C378.3,103.4,380,100.8,379.9,100.8z"/>
<path class="st20" d="M154.6,123.6c1.4,1.6,5.6,6.6,9.6,13.1c1.7,2.8,6.5,10.8,8.1,20.8c1.8,11.2,1.6,24.3,1.6,41.8
	c0,9.8,0.2,31.1,4.8,40.7c6,12.7,17.5,18,20.4,18.4c0.1,0,0-2.2,0-2.2c0,0-9.6-1.7-17.8-15.6c-5.4-9.1-5.6-32.7-5.6-42.5
	c0-17.5,0.2-30.6-1.6-41.8c-1.6-10-5.8-16.3-8.5-21.3c-2.7-4.9-8.1-11.7-9.1-13c-0.1,0.4-0.3,0.9-0.4,1.5
	C155.6,123.7,155.2,123.6,154.6,123.6z"/>
<polygon class="st21" points="66,154.1 65.7,156.1 67.8,156.2 68.2,154.1 "/>
<path class="st22" d="M78.3,118.9L78.3,118.9c-0.3,0.1-0.6,0.1-0.7-0.2l-4-7c-0.1-0.3-0.1-0.6,0.2-0.7l0,0c0.3-0.1,0.6-0.1,0.7,0.2
	l4,7C78.6,118.5,78.5,118.8,78.3,118.9z"/>
<path class="st22" d="M95.9,118.9L95.9,118.9c-0.3,0.1-0.6,0.1-0.7-0.2l-4.4-7.7c-0.1-0.3-0.1-0.6,0.2-0.7l0,0
	c0.3-0.1,0.6-0.1,0.7,0.2l4.4,7.7C96.2,118.4,96.1,118.8,95.9,118.9z"/>
<path class="st22" d="M100.4,118.9L100.4,118.9c-0.3,0.1-0.6,0.1-0.7-0.2l-4.4-7.7c-0.1-0.3-0.1-0.6,0.2-0.7l0,0
	c0.3-0.1,0.6-0.1,0.7,0.2l4.4,7.7C100.7,118.4,100.6,118.8,100.4,118.9z"/>
<path class="st22" d="M134.6,110.5l0.1,0.2l4.3,7.4c0.1,0.3,0.1,0.6-0.2,0.7l0,0c-0.3,0.1-0.6,0.1-0.7-0.2l-4.1-7.1"/>
<g>
	<g>
		<path class="st23" d="M73.7,109.6L73.7,109.6c-0.3,0.2-0.6,0.1-0.8-0.2l-0.9-1.6c-0.2-0.3-0.1-0.6,0.2-0.8l0,0
			c0.3-0.2,0.6-0.1,0.8,0.2l0.9,1.6C74.1,109.1,74,109.4,73.7,109.6z"/>
		<polygon class="st24" points="82.3,123.8 79.7,123.8 71.9,110.3 74.4,110.3 		"/>
		<polyline class="st25" points="74.5,110.3 75,108.3 82.8,121.8 82.3,123.8 		"/>
		<line class="st25" x1="73.7" y1="108.3" x2="75" y2="108.3"/>
		<line class="st25" x1="71.9" y1="110.3" x2="72.5" y2="108.6"/>
	</g>
	<g>
		<path class="st23" d="M78.7,109.6L78.7,109.6c-0.3,0.2-0.6,0.1-0.8-0.2l-0.9-1.6c-0.2-0.3-0.1-0.6,0.2-0.8l0,0
			c0.3-0.2,0.6-0.1,0.8,0.2l0.9,1.6C79.1,109.1,79,109.5,78.7,109.6z"/>
		<polygon class="st24" points="87.2,123.8 84.7,123.8 76.9,110.3 79.4,110.3 		"/>
		<polyline class="st25" points="79.5,110.3 79.9,108.3 87.8,121.8 87.3,123.8 		"/>
		<line class="st25" x1="78.7" y1="108.3" x2="79.9" y2="108.3"/>
		<line class="st25" x1="76.9" y1="110.3" x2="77.4" y2="108.6"/>
	</g>
	<g>
		<path class="st23" d="M99.2,109.6L99.2,109.6c-0.3,0.2-0.6,0.1-0.8-0.2l-0.9-1.6c-0.2-0.3-0.1-0.6,0.2-0.8l0,0
			c0.3-0.2,0.6-0.1,0.8,0.2l0.9,1.6C99.6,109.1,99.5,109.4,99.2,109.6z"/>
		<polygon class="st24" points="107.8,123.8 105.2,123.8 97.4,110.3 99.9,110.3 		"/>
		<polyline class="st25" points="100,110.3 100.5,108.3 108.3,121.8 107.8,123.8 		"/>
		<line class="st25" x1="99.3" y1="108.3" x2="100.5" y2="108.3"/>
		<line class="st25" x1="97.4" y1="110.3" x2="97.8" y2="108.7"/>
	</g>
	<g>
		<path class="st23" d="M104.2,109.6L104.2,109.6c-0.3,0.2-0.6,0.1-0.8-0.2l-0.9-1.6c-0.2-0.3-0.1-0.6,0.2-0.8l0,0
			c0.3-0.2,0.6-0.1,0.8,0.2l0.9,1.6C104.6,109.1,104.5,109.5,104.2,109.6z"/>
		<polygon class="st24" points="112.7,123.8 110.2,123.8 102.4,110.3 104.9,110.3 		"/>
		<polyline class="st25" points="105,110.3 105.4,108.3 113.3,121.8 112.8,123.8 		"/>
		<line class="st25" x1="104.2" y1="108.3" x2="105.4" y2="108.3"/>
		<line class="st25" x1="102.4" y1="110.3" x2="103" y2="108.7"/>
	</g>
	<g>
		<path class="st23" d="M146.4,106.2l5.1,8.6c0.2,0.3,0.1,0.7-0.2,0.8l0,0c-0.3,0.2-0.6,0.1-0.8-0.2l-4.5-7.5l-0.2-0.3"/>
	</g>
	<path class="st23" d="M57.1,116.1L57.1,116.1c-0.3,0.2-0.6,0.1-0.8-0.2l-4.5-7.9c-0.2-0.3-0.1-0.6,0.2-0.8l0,0
		c0.3-0.2,0.6-0.1,0.8,0.2l4.5,7.9C57.5,115.5,57.4,115.9,57.1,116.1z"/>
	<path class="st23" d="M62.3,116.1L62.3,116.1c-0.3,0.2-0.6,0.1-0.8-0.2L57,108c-0.2-0.3-0.1-0.6,0.2-0.8l0,0
		c0.3-0.2,0.6-0.1,0.8,0.2l4.5,7.8C62.7,115.5,62.6,115.9,62.3,116.1z"/>
	<path class="st23" d="M67.1,116.1L67.1,116.1c-0.3,0.2-0.6,0.1-0.8-0.2l-4.5-7.9c-0.2-0.3-0.1-0.6,0.2-0.8l0,0
		c0.3-0.2,0.6-0.1,0.8,0.2l4.5,7.9C67.5,115.5,67.4,115.9,67.1,116.1z"/>
	<path class="st23" d="M72.3,116.1L72.3,116.1c-0.3,0.2-0.6,0.1-0.8-0.2L67,108c-0.2-0.3-0.1-0.6,0.2-0.8l0,0
		c0.3-0.2,0.6-0.1,0.8,0.2l4.5,7.8C72.7,115.5,72.6,115.9,72.3,116.1z"/>
	<path class="st23" d="M87.4,116L87.4,116c-0.3,0.2-0.6,0.1-0.8-0.2l-5-8.6c-0.2-0.3-0.1-0.6,0.2-0.8l0,0c0.3-0.2,0.6-0.1,0.8,0.2
		l5,8.6C87.8,115.5,87.7,115.9,87.4,116z"/>
	<path class="st23" d="M92.5,116L92.5,116c-0.3,0.2-0.6,0.1-0.8-0.2l-5-8.6c-0.2-0.3-0.1-0.6,0.2-0.8l0,0c0.3-0.2,0.6-0.1,0.8,0.2
		l5,8.6C92.9,115.5,92.8,115.9,92.5,116z"/>
	<path class="st23" d="M97.6,116L97.6,116c-0.3,0.2-0.6,0.1-0.8-0.2l-5-8.6c-0.2-0.3-0.1-0.6,0.2-0.8l0,0c0.3-0.2,0.6-0.1,0.8,0.2
		l5,8.6C98,115.5,97.9,115.9,97.6,116z"/>
	<path class="st23" d="M113.1,116L113.1,116c-0.3,0.2-0.6,0.1-0.8-0.2l-5-8.6c-0.2-0.3-0.1-0.6,0.2-0.8l0,0c0.3-0.2,0.6-0.1,0.8,0.2
		l5,8.6C113.5,115.5,113.4,115.9,113.1,116z"/>
	<path class="st23" d="M118.3,116.2L118.3,116.2c-0.3,0.2-0.6,0.1-0.8-0.2l-5-8.6c-0.2-0.3-0.1-0.6,0.2-0.8l0,0
		c0.3-0.2,0.6-0.1,0.8,0.2l5,8.6C118.7,115.7,118.6,116,118.3,116.2z"/>
	<path class="st23" d="M123.7,116L123.7,116c-0.3,0.2-0.6,0.1-0.8-0.2l-5-8.6c-0.2-0.3-0.1-0.6,0.2-0.8l0,0c0.3-0.2,0.6-0.1,0.8,0.2
		l5,8.6C124.1,115.5,124,115.9,123.7,116z"/>
	<path class="st23" d="M129.4,116.2L129.4,116.2c-0.3,0.2-0.6,0.1-0.8-0.2l-5-8.6c-0.2-0.3-0.1-0.6,0.2-0.8l0,0
		c0.3-0.2,0.6-0.1,0.8,0.2l5,8.6C129.8,115.7,129.7,116,129.4,116.2z"/>
	<path class="st23" d="M134.7,116L134.7,116c-0.3,0.2-0.6,0.1-0.8-0.2l-5-8.6c-0.2-0.3-0.1-0.6,0.2-0.8l0,0c0.3-0.2,0.6-0.1,0.8,0.2
		l5,8.6C135.1,115.5,135,115.9,134.7,116z"/>
	<path class="st23" d="M140.4,116L140.4,116c-0.3,0.2-0.6,0.1-0.8-0.2l-5-8.6c-0.2-0.3-0.1-0.6,0.2-0.8l0,0c0.3-0.2,0.6-0.1,0.8,0.2
		l5,8.6C140.7,115.5,140.6,115.9,140.4,116z"/>
	<path class="st23" d="M145.9,116L145.9,116c-0.3,0.2-0.6,0.1-0.8-0.2l-5-8.6c-0.2-0.3-0.1-0.6,0.2-0.8l0,0c0.3-0.2,0.6-0.1,0.8,0.2
		l5,8.6C146.3,115.5,146.2,115.9,145.9,116z"/>
	<line class="st23" x1="159" y1="69.9" x2="155.9" y2="63.5"/>
	<line class="st23" x1="157.1" y1="63" x2="160" y2="69.4"/>
	<path class="st23" d="M154.9,68.1l1.3,2.5c0.1,0.3,0,0.7-0.3,0.8l0,0c-0.3,0.1-0.7,0-0.8-0.3l-0.7-1.4"/>
	<polyline id="polygon4593_4_" class="st26" points="52.8,60.7 53,59.8 54.7,52.8 156.7,53 152.2,71.5 	"/>
	<polyline id="polygon4593_3_" class="st26" points="149.2,84.3 145,101 41.8,100.9 43.6,93.7 	"/>
	<path id="path4595" inkscape:connector-curvature="0" class="st23" d="M51.6,68.7l0.2-0.6H40.3l1-3.1l11.1-0.1l0.2-0.6l-11.8,0.1
		l-2.6,8.2l6.3-0.1l-1.1,3.7H37l-1.5,4.7h6.4l-1.1,3.9h-6.5l-1.6,4.9l9.6,0.1l0.2-0.7L33.7,89l1.1-3.3h6.5l1.5-5.3h-6.5l1.1-3.5h6.4
		l1.5-4.9L39,72.1l1-3.1L51.6,68.7z"/>
	<path id="path4599" inkscape:connector-curvature="0" class="st27" d="M97,60.8l-7.8,32.4L28,93.1l10.3-32.3H97z"/>
	<path id="path4597_2_" inkscape:connector-curvature="0" class="st28" d="M43,91l0.7,1.3l44.8,0.2l7.3-30.4L95.2,60"/>
	<path id="path4597" inkscape:connector-curvature="0" class="st28" d="M87.9,91.1L95.2,60l-43-0.2l-9.1,31.1L87.9,91.1z"/>
	<path id="path4601" inkscape:connector-curvature="0" class="st23" d="M60.7,56.5c-0.2,0.6-0.9,1.1-1.7,1.1s-1.3-0.5-1.2-1.1
		c0.2-0.6,0.9-1.1,1.7-1.1l0,0C60.3,55.4,60.8,55.8,60.7,56.5z"/>
	<path id="path4603" inkscape:connector-curvature="0" class="st23" d="M65.7,56.5c-0.1,0.6-0.9,1.1-1.7,1.1c-0.8,0-1.4-0.5-1.2-1.1
		c0.1-0.6,0.9-1.1,1.7-1.1l0,0C65.2,55.4,65.8,55.8,65.7,56.5z"/>
	<path id="path4605" inkscape:connector-curvature="0" class="st23" d="M70.7,56.5c-0.1,0.6-0.9,1.1-1.7,1.1c-0.8,0-1.4-0.5-1.2-1.1
		c0.1-0.6,0.9-1.1,1.7-1.1l0,0C70.3,55.4,70.9,55.8,70.7,56.5z"/>
	<path id="path4607" inkscape:connector-curvature="0" class="st23" d="M75.6,56.5c-0.1,0.6-0.9,1.1-1.7,1.1c-0.8,0-1.4-0.5-1.2-1.1
		c0.1-0.6,0.9-1.1,1.7-1.1l0,0C75.3,55.4,75.8,55.8,75.6,56.5z"/>
	<path id="path4609" inkscape:connector-curvature="0" class="st23" d="M80.7,56.5c-0.1,0.6-0.9,1.1-1.7,1.1c-0.8,0-1.4-0.5-1.2-1.1
		c0.1-0.6,0.9-1.1,1.7-1.1l0,0C80.3,55.4,80.8,55.8,80.7,56.5z"/>
	<path id="path4611" inkscape:connector-curvature="0" class="st23" d="M85.6,56.5c-0.1,0.6-0.9,1.1-1.7,1.1c-0.8,0-1.4-0.5-1.2-1.1
		c0.1-0.6,0.9-1.1,1.7-1.1l0,0C85.2,55.4,85.8,55.8,85.6,56.5z"/>
	<path id="path4613" inkscape:connector-curvature="0" class="st23" d="M90.8,56.5c-0.1,0.6-0.9,1.1-1.7,1.1c-0.8,0-1.4-0.5-1.2-1.1
		c0.1-0.6,0.9-1.1,1.7-1.1l0,0C90.3,55.4,90.8,55.8,90.8,56.5z"/>
	<path id="path4615" inkscape:connector-curvature="0" class="st23" d="M95.8,56.5c-0.1,0.6-0.9,1.1-1.7,1.1c-0.8,0-1.4-0.5-1.2-1.1
		c0.1-0.6,0.9-1.1,1.7-1.1l0,0C95.4,55.4,95.9,55.8,95.8,56.5z"/>
	<path id="path4617" inkscape:connector-curvature="0" class="st23" d="M100.8,56.5c-0.1,0.6-0.9,1.1-1.7,1.1
		c-0.8,0-1.4-0.5-1.2-1.1c0.1-0.6,0.9-1.1,1.7-1.1l0,0C100.4,55.4,101,55.8,100.8,56.5z"/>
	<path id="path4619" inkscape:connector-curvature="0" class="st23" d="M105.8,56.5c-0.1,0.6-0.9,1.1-1.7,1.1
		c-0.8,0-1.4-0.5-1.2-1.1c0.1-0.6,0.9-1.1,1.7-1.1l0,0C105.4,55.4,105.9,55.8,105.8,56.5z"/>
	<path id="path4621" inkscape:connector-curvature="0" class="st23" d="M110.9,56.5c-0.1,0.6-0.9,1.1-1.7,1.1
		c-0.8,0-1.4-0.5-1.3-1.1s0.9-1.1,1.7-1.1l0,0C110.5,55.4,111,55.8,110.9,56.5z"/>
	<path id="path4623" inkscape:connector-curvature="0" class="st23" d="M115.9,56.5c-0.1,0.6-0.9,1.1-1.7,1.1
		c-0.9,0-1.4-0.5-1.3-1.1s0.9-1.1,1.7-1.1l0,0C115.5,55.4,116,55.8,115.9,56.5z"/>
	<path id="path4625" inkscape:connector-curvature="0" class="st23" d="M121.1,56.5c-0.1,0.6-0.9,1.1-1.7,1.1
		c-0.9,0-1.4-0.5-1.3-1.1s0.9-1.1,1.7-1.1l0,0C120.6,55.4,121.2,55.8,121.1,56.5z"/>
	<path id="path4627" inkscape:connector-curvature="0" class="st23" d="M126.1,56.5c-0.1,0.6-0.9,1.1-1.7,1.1
		c-0.9,0-1.4-0.5-1.3-1.1s0.9-1.1,1.7-1.1l0,0C125.7,55.4,126.2,55.8,126.1,56.5z"/>
	<path id="path4629" inkscape:connector-curvature="0" class="st23" d="M131.2,56.5c-0.1,0.6-0.9,1.1-1.7,1.1
		c-0.9,0-1.4-0.5-1.3-1.1c0.1-0.6,0.9-1.1,1.7-1.1l0,0C130.8,55.4,131.4,55.8,131.2,56.5z"/>
	<path id="path4631" inkscape:connector-curvature="0" class="st23" d="M136.3,56.5c-0.1,0.6-0.9,1.1-1.7,1.1
		c-0.9,0-1.4-0.5-1.3-1.1c0.1-0.6,0.9-1.1,1.7-1.1l0,0C135.8,55.4,136.4,55.8,136.3,56.5z"/>
	<path id="path4633" inkscape:connector-curvature="0" class="st23" d="M141.5,56.5c-0.1,0.6-0.9,1.1-1.7,1.1
		c-0.9,0-1.4-0.5-1.3-1.1c0.1-0.6,0.9-1.1,1.7-1.1l0,0C141,55.4,141.6,55.8,141.5,56.5z"/>
	<path id="path4635" inkscape:connector-curvature="0" class="st23" d="M146.5,56.5c-0.1,0.6-0.9,1.1-1.7,1.1
		c-0.9,0-1.4-0.5-1.3-1.1c0.1-0.6,0.9-1.1,1.7-1.1l0,0C146,55.4,146.7,55.8,146.5,56.5z"/>
	<path id="path4637" inkscape:connector-curvature="0" class="st23" d="M151.7,56.5c-0.1,0.6-0.9,1.1-1.7,1.1
		c-0.9,0-1.4-0.5-1.3-1.1c0.1-0.6,0.9-1.1,1.7-1.1l0,0C151.3,55.4,151.8,55.8,151.7,56.5z"/>
	<path class="st23" d="M50.6,97.2c-0.2,0.7-0.9,1.2-1.8,1.2c-0.8,0-1.4-0.5-1.2-1.2s0.9-1.2,1.7-1.2C50.3,96,50.8,96.5,50.6,97.2z"
		/>
	<path class="st23" d="M55.7,97.2c-0.2,0.7-0.9,1.2-1.7,1.2c-0.8,0-1.4-0.5-1.2-1.2c0.2-0.7,0.9-1.2,1.7-1.2
		C55.2,96,55.8,96.5,55.7,97.2z"/>
	<path class="st23" d="M60.8,97.3c-0.2,0.7-1,1.2-1.9,1.2c-0.8,0-1.4-0.6-1.2-1.3c0.2-0.7,1-1.2,1.9-1.2l0,0
		C60.4,96.2,60.9,96.7,60.8,97.3z"/>
	<path class="st23" d="M65.8,97.2c-0.1,0.7-0.9,1.2-1.7,1.2c-0.8,0-1.4-0.5-1.2-1.2c0.1-0.7,0.9-1.2,1.7-1.2
		C65.4,96.1,65.9,96.6,65.8,97.2z"/>
	<path class="st23" d="M70.9,97.2c-0.1,0.7-0.9,1.2-1.7,1.2c-0.9,0-1.4-0.5-1.2-1.2c0.1-0.7,0.9-1.2,1.7-1.2
		C70.5,96,71,96.5,70.9,97.2z"/>
	<path class="st23" d="M75.9,97.2c-0.1,0.7-0.9,1.2-1.7,1.2c-0.9,0-1.4-0.5-1.2-1.2c0.1-0.7,0.9-1.2,1.7-1.2l0,0
		C75.5,96,76,96.5,75.9,97.2z"/>
	<path class="st23" d="M81.1,97.2c-0.1,0.7-0.9,1.2-1.7,1.2c-0.9,0-1.4-0.5-1.2-1.2c0.1-0.7,0.9-1.2,1.7-1.2
		C80.6,96,81.1,96.5,81.1,97.2z"/>
	<path class="st23" d="M86.1,97.2c-0.1,0.7-0.9,1.2-1.7,1.2c-0.9,0-1.4-0.5-1.2-1.2c0.1-0.7,0.9-1.2,1.7-1.2
		C85.7,96,86.3,96.5,86.1,97.2z"/>
	<path class="st23" d="M91.3,97.2c-0.1,0.7-0.9,1.2-1.7,1.2c-0.9,0-1.4-0.5-1.3-1.2S89.2,96,90,96C90.9,96,91.4,96.5,91.3,97.2z"/>
	<path class="st23" d="M96.3,97.2c-0.1,0.7-0.9,1.2-1.7,1.2c-0.9,0-1.4-0.5-1.3-1.2S94.2,96,95,96C95.9,96,96.4,96.6,96.3,97.2z"/>
	<path class="st23" d="M101.5,97.3c-0.1,0.7-1,1.2-1.9,1.2s-1.4-0.6-1.2-1.3c0.1-0.7,0.9-1.1,1.7-1.2
		C101.1,96.1,101.6,96.6,101.5,97.3L101.5,97.3z"/>
	<path class="st23" d="M106.5,97.2c-0.1,0.7-0.9,1.2-1.7,1.2c-0.9,0-1.4-0.5-1.3-1.2s0.9-1.2,1.7-1.2
		C106.1,96,106.6,96.5,106.5,97.2z"/>
	<path class="st23" d="M111.8,97.2c-0.1,0.7-0.9,1.2-1.7,1.2c-0.9,0-1.4-0.5-1.3-1.2s0.9-1.2,1.7-1.2
		C111.3,96,111.9,96.5,111.8,97.2z"/>
	<path class="st23" d="M116.9,97.3c-0.1,0.7-1,1.2-1.9,1.2s-1.4-0.6-1.3-1.3c0.1-0.7,0.9-1.2,1.7-1.2C116.5,96,117,96.6,116.9,97.3
		L116.9,97.3z"/>
	<path class="st23" d="M122,97.2c-0.1,0.7-0.9,1.2-1.7,1.2c-0.9,0-1.4-0.5-1.3-1.2s0.9-1.2,1.7-1.2C121.6,96,122.2,96.5,122,97.2z"
		/>
	<path class="st23" d="M127.1,97.3c-0.1,0.7-1,1.2-1.8,1.2c-0.9,0-1.4-0.6-1.3-1.3c0.1-0.7,1-1.2,1.7-1.2
		C126.7,96.1,127.4,96.6,127.1,97.3L127.1,97.3z"/>
	<path class="st23" d="M132.4,97.2c-0.1,0.7-0.9,1.2-1.7,1.2c-0.9,0-1.4-0.5-1.3-1.2c0.1-0.7,0.9-1.2,1.7-1.2
		C131.9,96,132.6,96.6,132.4,97.2z"/>
	<path class="st23" d="M137.5,97.2c-0.1,0.7-0.9,1.2-1.7,1.2c-0.9,0-1.4-0.5-1.3-1.2c0.1-0.7,0.9-1.2,1.7-1.2
		C137,96,137.7,96.5,137.5,97.2z"/>
	<path class="st23" d="M142.8,97.2c-0.1,0.7-0.9,1.2-1.7,1.2c-0.9,0-1.4-0.5-1.3-1.2c0.1-0.7,0.9-1.2,1.7-1.2
		C142.3,96,142.9,96.5,142.8,97.2z"/>
	<path id="path4677" inkscape:connector-curvature="0" class="st23" d="M147.3,79.1l-0.3,1.2h-2.7l0.3-1.2H147.3z"/>
	<path id="path4679" inkscape:connector-curvature="0" class="st23" d="M148.6,73.6l-0.3,1.2h-2.6l0.3-1.2H148.6z"/>
	<path id="path4677_2_" inkscape:connector-curvature="0" class="st23" d="M154.9,79.2l-0.2,1.1h-2.4l0.2-1.1H154.9z"/>
	<path id="path4679_2_" inkscape:connector-curvature="0" class="st23" d="M156.1,74.3l-0.2,1.1h-2.4l0.2-1.1H156.1z"/>
	<path id="path4685" inkscape:connector-curvature="0" class="st23" d="M140.5,78.7l-0.1,0.6h-1.9l0.1-0.6H140.5z"/>
	<path id="path4685_2_" inkscape:connector-curvature="0" class="st23" d="M140.8,77.7l-0.1,0.6h-1.9l0.1-0.6H140.8z"/>
	<path id="path4689" inkscape:connector-curvature="0" class="st23" d="M141.1,76.7l-0.1,0.6h-1.9l0.1-0.6H141.1z"/>
	<path id="path4691" inkscape:connector-curvature="0" class="st23" d="M141.4,75.8l-0.1,0.6h-1.9l0.1-0.6H141.4z"/>
	<path id="path4693" inkscape:connector-curvature="0" class="st23" d="M141.6,74.8l-0.1,0.6h-1.9l0.1-0.6H141.6z"/>
	<path id="path4695" inkscape:connector-curvature="0" class="st23" d="M150.1,82.6h-12.7l0.7-2.5h2.7l1.6-6.1h-2.9l0.6-2.5h12.4
		L150.1,82.6z"/>
	<path id="path4695_2_" inkscape:connector-curvature="0" class="st23" d="M151.1,84.2L138,84.1l-0.6-1.4"/>
	<path id="path4697" inkscape:connector-curvature="0" class="st23" d="M152.3,72.8h5.5 M155.6,81.6h-5.2"/>
	<path id="path4697_2_" inkscape:connector-curvature="0" class="st23" d="M155.5,82.6h-5.3"/>
	<path id="path4699" inkscape:connector-curvature="0" class="st26" d="M177.9,73.6l-1.2,7.1c-0.4,2.5-3.7,4.7-7.2,4.7L157,85.3
		c-1.1,0-1.9-1-1.6-2.2l2.6-11.7c0.3-1.3,1.5-2.3,2.8-2.3h11.7C176,69,178.4,71.1,177.9,73.6z"/>
	<line class="st29" x1="87.9" y1="91.1" x2="88.4" y2="92.5"/>
	<line class="st23" x1="89.2" y1="93" x2="89.7" y2="93.9"/>
	<polyline class="st23" points="27.9,93.2 28.1,93.7 88.4,93.9 89.7,93.9 97.5,61.7 97.2,60.7 	"/>
	<polyline class="st23" points="41.7,101.1 42.8,103.9 145.7,104.5 145,101 	"/>
	<polyline class="st23" points="156.9,53 157.7,56.3 153.7,72.8 	"/>
	<line class="st23" x1="151.6" y1="82.7" x2="145.7" y2="104.5"/>
	<line class="st23" x1="150.1" y1="82.6" x2="150.8" y2="84"/>
	<line class="st23" x1="152.5" y1="71.5" x2="153" y2="72.8"/>
	<path class="st25" d="M156.9,83.1c0,0,13.4,0.4,14.7,0c0.6-0.2,2.8-1.2,3.5-2.7"/>
	<polyline class="st21" points="46.8,104.2 48.1,107.4 145.8,107.6 144.7,104.7 	"/>
	<polyline class="st23" points="46.4,104 47.9,107.6 145.9,107.6 144.7,104.5 	"/>
	<polyline class="st23" points="146.5,101.6 147.1,103.9 145.9,107.8 	"/>
	<polyline class="st23" points="156.5,60.9 157.3,63 156.1,63 	"/>
	<polyline class="st23" points="157.3,57.8 157.9,60.1 157.3,63 	"/>
</g>
<g>
	<g>
		<rect x="214.1" y="228.7" class="st26" width="81.4" height="33.3"/>
		<path class="st30" d="M221.3,258.4h-5.4v-26h5.4c1.2,0,2.2,1,2.2,2.2v21.6C223.4,257.5,222.5,258.4,221.3,258.4z"/>
		<circle class="st30" cx="220.9" cy="234.6" r="1"/>
		<circle class="st30" cx="220.9" cy="239.1" r="1"/>
		<circle class="st30" cx="220.9" cy="243.4" r="1"/>
		<circle class="st30" cx="220.9" cy="247.8" r="1"/>
		<circle class="st30" cx="220.9" cy="252.1" r="1"/>
		<circle class="st30" cx="220.9" cy="256.4" r="1"/>
		<g>
			<rect x="202.2" y="234.2" class="st31" width="13.9" height="0.9"/>
			<rect x="202.2" y="238.7" class="st31" width="13.9" height="0.9"/>
			<rect x="202.2" y="242.9" class="st31" width="13.9" height="0.9"/>
			<rect x="202.2" y="247.5" class="st31" width="13.9" height="0.9"/>
			<rect x="202.2" y="251.6" class="st31" width="13.9" height="0.9"/>
			<rect x="202.2" y="256" class="st31" width="13.9" height="0.9"/>
		</g>
		<g>
			<rect x="219.3" y="234.2" class="st31" width="2.2" height="0.9"/>
			<rect x="219.3" y="238.7" class="st31" width="2.2" height="0.9"/>
			<rect x="219.3" y="242.9" class="st31" width="2.2" height="0.9"/>
			<rect x="219.3" y="247.5" class="st31" width="2.2" height="0.9"/>
			<rect x="219.3" y="251.6" class="st31" width="2.2" height="0.9"/>
			<rect x="219.3" y="256" class="st31" width="2.2" height="0.9"/>
		</g>
		<g>
			<circle class="st30" cx="242.4" cy="231.6" r="1.4"/>
			<circle class="st30" cx="248" cy="231.6" r="1.4"/>
			<circle class="st30" cx="253.4" cy="231.6" r="1.4"/>
			<circle class="st30" cx="258.9" cy="231.6" r="1.4"/>
			<circle class="st30" cx="264.6" cy="231.6" r="1.4"/>
		</g>
		<g>
			<rect x="242.4" y="240.8" class="st30" width="22.2" height="9"/>
			<g>
				<rect x="243.7" y="236" class="st30" width="0.9" height="4.8"/>
				<rect x="245.2" y="236" class="st30" width="0.9" height="4.8"/>
				<rect x="246.7" y="236" class="st30" width="0.9" height="4.8"/>
				<rect x="248.1" y="236" class="st30" width="0.9" height="4.8"/>
				<rect x="249.5" y="236" class="st30" width="0.9" height="4.8"/>
				<rect x="250.9" y="236" class="st30" width="0.9" height="4.8"/>
				<rect x="252.3" y="236" class="st30" width="0.9" height="4.8"/>
				<rect x="253.8" y="236" class="st30" width="0.9" height="4.8"/>
				<rect x="255.2" y="236" class="st30" width="0.9" height="4.8"/>
				<rect x="256.6" y="236" class="st30" width="0.9" height="4.8"/>
				<rect x="258" y="236" class="st30" width="0.9" height="4.8"/>
				<rect x="259.5" y="236" class="st30" width="0.9" height="4.8"/>
				<rect x="260.8" y="236" class="st30" width="0.9" height="4.8"/>
				<rect x="262.3" y="236" class="st30" width="0.9" height="4.8"/>
			</g>
			<g>
				<rect x="243.7" y="249.8" class="st30" width="0.9" height="4.8"/>
				<rect x="245.2" y="249.8" class="st30" width="0.9" height="4.8"/>
				<rect x="246.7" y="249.8" class="st30" width="0.9" height="4.8"/>
				<rect x="248.1" y="249.8" class="st30" width="0.9" height="4.8"/>
				<rect x="249.5" y="249.8" class="st30" width="0.9" height="4.8"/>
				<rect x="250.9" y="249.8" class="st30" width="0.9" height="4.8"/>
				<rect x="252.3" y="249.8" class="st30" width="0.9" height="4.8"/>
				<rect x="253.8" y="249.8" class="st30" width="0.9" height="4.8"/>
				<rect x="255.2" y="249.8" class="st30" width="0.9" height="4.8"/>
				<rect x="256.6" y="249.8" class="st30" width="0.9" height="4.8"/>
				<rect x="258" y="249.8" class="st30" width="0.9" height="4.8"/>
				<rect x="259.5" y="249.8" class="st30" width="0.9" height="4.8"/>
				<rect x="260.8" y="249.8" class="st30" width="0.9" height="4.8"/>
				<rect x="262.3" y="249.8" class="st30" width="0.9" height="4.8"/>
			</g>
		</g>
		<g>
			<polygon class="st30" points="267.5,234.1 239.5,234.1 239.5,228.8 245.2,228.8 267.5,228.8 			"/>
			<line class="st30" x1="245.2" y1="234.1" x2="245.2" y2="228.4"/>
		</g>
		<circle class="st30" cx="242.3" cy="259.1" r="1.4"/>
		<circle class="st30" cx="247.9" cy="259.1" r="1.4"/>
		<circle class="st30" cx="253.2" cy="259.1" r="1.4"/>
		<circle class="st30" cx="258.8" cy="259.1" r="1.4"/>
		<circle class="st30" cx="264.5" cy="259.1" r="1.4"/>
		<polygon class="st30" points="267.5,261.9 239.4,261.9 239.4,256.5 245.1,256.5 267.5,256.5 		"/>
		<rect x="214.1" y="232" class="st31" width="4.9" height="26.8"/>
		<line class="st30" x1="245.1" y1="262" x2="245.1" y2="256.6"/>
		<g>
			<g>
				<rect x="287.1" y="234.8" class="st32" width="29.3" height="21.1"/>
				<rect x="289.5" y="243.6" class="st30" width="3.3" height="3.3"/>
				<rect x="302.3" y="237.3" class="st30" width="4.2" height="4.8"/>
				<rect x="302.3" y="248.6" class="st30" width="4.2" height="4.8"/>
			</g>
			<g>
				<rect x="279.8" y="237.9" class="st30" width="7.3" height="1.9"/>
				<rect x="279.8" y="242.2" class="st30" width="7.3" height="1.9"/>
				<rect x="279.8" y="246.5" class="st30" width="7.3" height="1.9"/>
				<rect x="279.8" y="250.9" class="st30" width="7.3" height="1.9"/>
			</g>
		</g>
	</g>
	<rect x="199.1" y="230.9" class="st33" width="11.6" height="29"/>
	<rect x="199.1" y="230.9" class="st26" width="11.6" height="29"/>
</g>
<g>
	<path id="path4701" inkscape:connector-curvature="0" class="st32" d="M184.7,74.9l-0.3,2.5c-0.1,0.7-0.6,1.9-2.8,1.8l-5.5-0.2
		c-0.8,0-1.4-0.7-1.2-1.5l0.5-3.1c0.2-0.9,1-1.7,2-1.6l5.1,0.1C184,72.9,184.8,74.2,184.7,74.9z"/>
	<line class="st25" x1="176.4" y1="77.9" x2="182.3" y2="78"/>
</g>
<path class="st34" d="M384,93.8c-9.1,2.3-20.8,3.3-42.1,2.9C304.4,96,267.7,84.9,245,79.6S183.3,75,183.3,75c-0.6,0-1,0.5-1,1
	c0,0.6,0.5,1,1,1c0,0,39-0.8,61.7,4.5c22.7,5.3,59.4,16.4,96.8,17.1c21.3,0.4,32-0.4,40.8-2.6L384,93.8z"/>
<path class="st35" d="M325.5,258.8h-23.1c-1.4,0-2.5-1.1-2.5-2.5v-21.8c0-1.4,1.1-2.5,2.5-2.5h23.1c1.4,0,2.5,1.1,2.5,2.5v21.8
	C328.1,257.6,326.9,258.8,325.5,258.8z"/>
<path class="st36" d="M325.5,258.8h-23.1c-1.4,0-2.5-1.1-2.5-2.5v-21.8c0-1.4,1.1-2.5,2.5-2.5h23.1c1.4,0,2.5,1.1,2.5,2.5v21.8
	C328.1,257.6,326.9,258.8,325.5,258.8z"/>
<rect x="304.4" y="232.3" class="st37" width="19.1" height="26.2"/>
<rect x="328.1" y="237.9" class="st32" width="6.7" height="14"/>
<path class="st38" d="M194.3,256c-2.5,0-5.8-0.3-8.9-1.3c-7.9-2.6-18.4-12.2-23-25.8c-1-2.8-2.2-7-3.6-11.9
	c-4.6-15.9-13.9-38.7-22.8-52.8c-11.4-18.1-24.4-40.2-24.5-40.4h1.2l0.4-1.3c0.2,0.2,13.1,22.4,24.6,40.7c9,14.4,18.3,37.3,23,53.3
	c1.4,4.9,2.6,9.1,3.6,11.8c4.4,12.8,14.5,22.2,21.7,24.6c6.3,2,12.9,0.9,12.9,0.9l0,2.1C198.8,255.8,197.1,256,194.3,256z"/>
<path class="st38" d="M198.9,250.4c0,0-3.2,0.7-10.7-0.9c-7.6-1.6-21.3-13-26.7-20.1c-4.5-5.9-6.5-12-8.3-18c-0.5-1.5-1-3.4-1.5-4.9
	c-2.6-7.9-14.8-33.7-20.4-42c-3.9-5.9-13-21.8-18.6-30.9c-2.4-3.9-5.8-9.1-6.3-9.8l1.3,0l0.3-1.3c0.5,0.7,3.7,6.2,6,9.5
	c6.4,9.5,15,25.5,18.9,31.4c5.6,8.5,18,34.6,20.6,42.5c0.5,1.6,1.1,3.4,1.6,5c1.7,5.8,3.7,11.7,7.9,17.3
	c5.4,7.1,18.1,17.8,26.5,19.9c4.9,1.2,9.2,0.5,9.3,0.5V250.4z"/>
<path class="st31" d="M195.2,244.9c-1.5,0-4-0.5-6-1.1c-12.3-3.7-33.7-23.7-39.6-31.5c-6.2-8.2-16.2-19.6-28.4-38.9
	c-12-18.8-35-49.4-35.2-49.7l1.3-0.1l0.4-1.1c0.2,0.3,23.2,30.8,35.3,49.8c12.2,19.3,22.1,30.6,28.3,38.8
	c6.5,8.5,27.5,27.4,38.6,30.8c5.2,1.6,9.1,0.7,9.1,0.7v1.9C198.8,244.6,198.1,244.9,195.2,244.9z"/>
<path class="st31" d="M196.3,238.1c-2.1,0-5.2-0.3-9.5-1.3c-15.7-3.8-38.7-25.4-52.7-40.1c-5.7-6-21.1-27.3-34-45.2
	c-9.5-13.2-18.4-26.6-19.1-27.7l1.4,0l0.3-1.4c0.2,0.3,9.3,14.2,19.3,28c12.8,17.9,28,39,33.6,44.8c17.7,18.4,36.5,35.9,51.7,39.6
	c8.1,2,11.7,1,11.8,1l0,2.1C198.9,237.9,198.3,238.1,196.3,238.1z"/>
</svg>
